<svg width="20" height="21" viewBox="0 0 20 21" fill="none" xmlns="http://www.w3.org/2000/svg">
<path d="M4.75 1.5V3.75M15.25 1.5V3.75M1 17.25V6C1 5.40326 1.23705 4.83097 1.65901 4.40901C2.08097 3.98705 2.65326 3.75 3.25 3.75H16.75C17.3467 3.75 17.919 3.98705 18.341 4.40901C18.7629 4.83097 19 5.40326 19 6V17.25M1 17.25C1 17.8467 1.23705 18.419 1.65901 18.841C2.08097 19.2629 2.65326 19.5 3.25 19.5H16.75C17.3467 19.5 17.919 19.2629 18.341 18.841C18.7629 18.419 19 17.8467 19 17.25M1 17.25V9.75C1 9.15326 1.23705 8.58097 1.65901 8.15901C2.08097 7.73705 2.65326 7.5 3.25 7.5H16.75C17.3467 7.5 17.919 7.73705 18.341 8.15901C18.7629 8.58097 19 9.15326 19 9.75V17.25M10 11.25H10.008V11.258H10V11.25ZM10 13.5H10.008V13.508H10V13.5ZM10 15.75H10.008V15.758H10V15.75ZM7.75 13.5H7.758V13.508H7.75V13.5ZM7.75 15.75H7.758V15.758H7.75V15.75ZM5.5 13.5H5.508V13.508H5.5V13.5ZM5.5 15.75H5.508V15.758H5.5V15.75ZM12.25 11.25H12.258V11.258H12.25V11.25ZM12.25 13.5H12.258V13.508H12.25V13.5ZM12.25 15.75H12.258V15.758H12.25V15.75ZM14.5 11.25H14.508V11.258H14.5V11.25ZM14.5 13.5H14.508V13.508H14.5V13.5Z" stroke="white" stroke-width="1.5" stroke-linecap="round" stroke-linejoin="round"/>
</svg>
