<svg width="17" height="18" viewBox="0 0 17 18" fill="none" xmlns="http://www.w3.org/2000/svg">
<path fill-rule="evenodd" clip-rule="evenodd" d="M8.51595 0.893555C13.111 0.893555 16.8493 4.63189 16.8493 9.22689C16.8493 13.8219 13.111 17.5602 8.51595 17.5602C3.92095 17.5602 0.182617 13.8219 0.182617 9.22689C0.182617 4.63189 3.92095 0.893555 8.51595 0.893555ZM8.51595 2.14355C4.61012 2.14355 1.43262 5.32105 1.43262 9.22689C1.43262 13.1327 4.61012 16.3102 8.51595 16.3102C12.4218 16.3102 15.5993 13.1327 15.5993 9.22689C15.5993 5.32105 12.4218 2.14355 8.51595 2.14355ZM8.23362 5.13972C8.57945 5.13972 8.85862 5.41972 8.85862 5.76472V9.44972L11.6961 11.1414C11.992 11.3189 12.0894 11.7022 11.9128 11.9989C11.7953 12.1947 11.5878 12.3039 11.3753 12.3039C11.2661 12.3039 11.1561 12.2756 11.0553 12.2164L7.91362 10.3422C7.72528 10.2289 7.60862 10.0247 7.60862 9.80472V5.76472C7.60862 5.41972 7.88862 5.13972 8.23362 5.13972Z" fill="url(#paint0_linear_1249_1885)"/>
<defs>
<linearGradient id="paint0_linear_1249_1885" x1="0.182617" y1="9.22689" x2="16.8493" y2="9.22689" gradientUnits="userSpaceOnUse">
<stop stop-color="#F7C301"/>
<stop offset="1" stop-color="#F47E37"/>
</linearGradient>
</defs>
</svg>
