<svg width="66" height="66" viewBox="0 0 66 66" fill="none" xmlns="http://www.w3.org/2000/svg">
<circle cx="33" cy="33" r="32" fill="#FF9900" stroke="white" stroke-width="2"/>
<g clip-path="url(#clip0_21_62)">
<path d="M15.2812 37.3584L19.2453 39.647C19.3093 39.684 19.3799 39.7079 19.4532 39.7176C19.5264 39.7272 19.6008 39.7223 19.6722 39.7031C19.7435 39.684 19.8104 39.651 19.869 39.606C19.9276 39.561 19.9768 39.5049 20.0137 39.441L20.1565 39.1936L22.4522 40.5377C22.3979 40.7329 22.3704 40.9345 22.3704 41.1371C22.3693 41.428 22.4259 41.7163 22.537 41.9851C22.648 42.254 22.8113 42.4982 23.0173 42.7036C23.2229 42.9094 23.4671 43.0726 23.7359 43.1838C24.0047 43.295 24.2929 43.352 24.5838 43.3515C24.6265 43.3515 24.6692 43.3498 24.7119 43.3474C24.7095 43.3896 24.708 43.4318 24.708 43.4746C24.7073 43.7655 24.7642 44.0536 24.8752 44.3224C24.9862 44.5912 25.1492 44.8355 25.3548 45.0411C25.5605 45.2468 25.8047 45.4098 26.0736 45.5208C26.3424 45.6318 26.6305 45.6886 26.9213 45.688C26.9642 45.688 27.0069 45.6865 27.0494 45.6841C27.047 45.7266 27.0454 45.7693 27.0454 45.8122C27.0448 46.103 27.1016 46.3911 27.2126 46.66C27.3236 46.9288 27.4866 47.1731 27.6923 47.3787C27.8979 47.5844 28.1422 47.7474 28.411 47.8584C28.6798 47.9694 28.968 48.0262 29.2588 48.0256C29.4146 48.0256 29.5699 48.0093 29.7223 47.9771C29.793 48.411 30.016 48.8056 30.3512 49.09C30.6865 49.3744 31.1122 49.5301 31.5518 49.529C31.7742 49.5293 31.9947 49.4897 32.2031 49.4122L32.3149 49.5238C32.5559 49.7652 32.8589 49.9355 33.1906 50.0158C33.5222 50.0961 33.8695 50.0834 34.1944 49.979C34.5192 49.8746 34.8089 49.6826 35.0317 49.4242C35.2544 49.1657 35.4015 48.8508 35.4568 48.5141C35.6091 48.5466 35.7643 48.5631 35.9201 48.5633C36.2217 48.5637 36.5203 48.5023 36.7974 48.383C37.0744 48.2637 37.3242 48.089 37.5312 47.8696C37.7383 47.6502 37.8982 47.3907 38.0012 47.1072C38.1043 46.8237 38.1482 46.522 38.1303 46.2209C38.1725 46.2233 38.2147 46.2248 38.2576 46.2248C38.5593 46.2254 38.8578 46.1642 39.135 46.0451C39.4121 45.9259 39.6619 45.7513 39.8689 45.5319C40.076 45.3126 40.236 45.0531 40.339 44.7696C40.442 44.4861 40.4859 44.1845 40.4679 43.8834C40.5101 43.8858 40.5523 43.8872 40.5952 43.8872C41.0008 43.8868 41.3986 43.7751 41.745 43.5642C42.0915 43.3532 42.3735 43.0513 42.5601 42.6911C42.7467 42.331 42.8309 41.9265 42.8035 41.5218C42.776 41.1171 42.638 40.7277 42.4045 40.3961L45.5076 38.6118L45.9863 39.441C46.0609 39.5701 46.1837 39.6644 46.3278 39.703C46.4719 39.7416 46.6255 39.7214 46.7547 39.6468L50.7187 37.3584C50.8479 37.2838 50.9422 37.161 50.9808 37.0169C51.0194 36.8728 50.9992 36.7193 50.9246 36.5901L45.7256 27.5852C45.651 27.456 45.5282 27.3618 45.3841 27.3232C45.24 27.2846 45.0865 27.3048 44.9573 27.3793L40.9933 29.668C40.8641 29.7426 40.7698 29.8655 40.7312 30.0096C40.6926 30.1537 40.7128 30.3072 40.7874 30.4364L41.2471 31.2327L40.59 31.4816C40.2885 31.6022 39.9534 31.609 39.6473 31.5006L35.2657 30.0402C35.0226 29.957 34.7653 29.9231 34.5089 29.9406C34.2526 29.9581 34.0022 30.0265 33.7726 30.142L32.9008 30.5717C32.8925 30.5668 32.8846 30.5615 32.876 30.557L31.8374 30.0085C31.5575 29.8586 31.2453 29.7792 30.9278 29.7773C30.6104 29.7753 30.2972 29.8509 30.0156 29.9974L28.6291 30.7076C28.524 30.7664 28.4059 30.798 28.2855 30.7996L24.9808 30.8374L25.2124 30.4362C25.287 30.307 25.3072 30.1534 25.2686 30.0094C25.23 29.8653 25.1357 29.7424 25.0065 29.6678L21.0426 27.3793C20.9135 27.3048 20.7599 27.2846 20.6159 27.3232C20.4718 27.3618 20.3489 27.456 20.2743 27.5852L15.0754 36.5901C15.0008 36.7193 14.9806 36.8728 15.0192 37.0169C15.0578 37.161 15.152 37.2838 15.2812 37.3584ZM23.8127 41.9084C23.6094 41.7033 23.4953 41.4261 23.4953 41.1373C23.4953 40.8485 23.6094 40.5714 23.8127 40.3663L25.7908 38.3882C25.9955 38.1849 26.2725 38.071 26.5611 38.0715C26.8496 38.072 27.1262 38.1869 27.3302 38.3909C27.5343 38.595 27.6491 38.8716 27.6496 39.1602C27.65 39.4487 27.5361 39.7257 27.3327 39.9304L25.3548 41.9084C25.1502 42.1125 24.8729 42.2272 24.5838 42.2272C24.2947 42.2272 24.0174 42.1125 23.8127 41.9084ZM26.1504 44.2459C25.9471 44.0409 25.833 43.7639 25.8329 43.4752C25.8328 43.1865 25.9467 42.9094 26.1499 42.7043L26.1504 42.7038L28.1284 40.7258C28.3334 40.5239 28.6099 40.4112 28.8977 40.4123C29.1855 40.4134 29.4611 40.5282 29.6646 40.7316C29.8681 40.9351 29.9829 41.2108 29.984 41.4986C29.9851 41.7863 29.8723 42.0629 29.6704 42.2679L27.6924 44.2459C27.4877 44.4501 27.2104 44.5647 26.9214 44.5647C26.6323 44.5647 26.355 44.4501 26.1504 44.2459ZM28.4879 46.5834C28.2837 46.3788 28.169 46.1015 28.169 45.8124C28.169 45.5233 28.2837 45.246 28.4879 45.0413L30.4659 43.0634C30.6703 42.8589 30.9477 42.744 31.2369 42.744C31.5261 42.744 31.8035 42.8589 32.0079 43.0634C32.2124 43.2679 32.3273 43.5452 32.3273 43.8344C32.3273 44.1236 32.2124 44.401 32.0079 44.6055C31.9891 44.6246 31.9716 44.6451 31.9557 44.6667C31.8967 44.7128 31.8404 44.7624 31.7874 44.8152L30.2397 46.3628C30.1867 46.416 30.137 46.4724 30.0909 46.5315C30.0694 46.5474 30.049 46.5648 30.0299 46.5836C29.8253 46.7877 29.548 46.9024 29.2589 46.9024C28.9698 46.9023 28.6925 46.7876 28.4879 46.5834ZM31.0353 48.1918C30.8983 48.0547 30.8214 47.8688 30.8214 47.675C30.8214 47.4812 30.8983 47.2954 31.0353 47.1582L32.5829 45.6107C32.72 45.4736 32.9059 45.3966 33.0997 45.3966C33.2935 45.3966 33.4794 45.4736 33.6165 45.6107C33.7535 45.7477 33.8305 45.9336 33.8305 46.1275C33.8305 46.3213 33.7535 46.5072 33.6165 46.6443L32.0689 48.1918C31.9314 48.328 31.7456 48.4044 31.5521 48.4044C31.3586 48.4044 31.1729 48.328 31.0353 48.1918ZM34.1438 48.7285C34.0077 48.8642 33.8238 48.9408 33.6317 48.942C33.4396 48.9431 33.2548 48.8686 33.1172 48.7346L34.15 47.7018C34.2841 47.8394 34.3586 48.0243 34.3574 48.2164C34.3562 48.4086 34.2795 48.5925 34.1438 48.7285ZM36.6914 47.1202C36.4867 47.3244 36.2095 47.439 35.9204 47.439C35.6313 47.439 35.3541 47.3244 35.1494 47.1202C35.1303 47.1013 35.1098 47.0839 35.0881 47.068C35.0421 47.0089 34.9925 46.9527 34.9396 46.8996L34.832 46.792C34.9309 46.535 34.9713 46.2593 34.9503 45.9847C34.9292 45.7102 34.8473 45.4438 34.7104 45.2049C34.5735 44.966 34.385 44.7606 34.1588 44.6037C33.9325 44.4468 33.6742 44.3423 33.4025 44.2977C33.464 44.0085 33.4674 43.7099 33.4125 43.4193C33.6196 43.3042 33.8585 43.2596 34.0931 43.2922C34.3278 43.3248 34.5455 43.4329 34.7133 43.6002L36.6914 45.5782C36.8956 45.7828 37.0103 46.0601 37.0103 46.3492C37.0103 46.6383 36.8956 46.9156 36.6914 47.1202ZM39.029 44.7827C38.8239 44.9859 38.5468 45.1 38.258 45.1C37.9692 45.1 37.6922 44.9859 37.487 44.7827L35.5089 42.8046C35.3105 42.599 35.2007 42.3237 35.2031 42.038C35.2056 41.7522 35.3201 41.4789 35.5221 41.2767C35.724 41.0745 35.9973 40.9597 36.283 40.957C36.5688 40.9543 36.8442 41.0638 37.05 41.2621V41.2625L39.028 43.2404C39.2323 43.445 39.3472 43.7223 39.3473 44.0114C39.3474 44.3006 39.2328 44.5779 39.0286 44.7827H39.029ZM41.3665 42.4451C41.1618 42.6493 40.8846 42.764 40.5955 42.764C40.3065 42.764 40.0292 42.6493 39.8246 42.4451L37.8465 40.4671C37.6445 40.2621 37.5318 39.9856 37.5329 39.6978C37.534 39.41 37.6488 39.1343 37.8523 38.9309C38.0558 38.7274 38.3314 38.6126 38.6192 38.6115C38.907 38.6104 39.1835 38.7231 39.3885 38.9251L41.3663 40.9035C41.5696 41.1086 41.6836 41.3857 41.6836 41.6745C41.6836 41.9633 41.5696 42.2404 41.3663 42.4455L41.3665 42.4451ZM45.0331 28.6349L49.6695 36.6654L46.6796 38.3915L42.0428 30.361L45.0331 28.6349ZM34.27 31.1511C34.3678 31.0999 34.4752 31.0696 34.5854 31.0621C34.6955 31.0546 34.806 31.0701 34.9099 31.1075L39.2915 32.5681C39.8435 32.7573 40.4446 32.7452 40.9885 32.5338L41.8172 32.2199L44.9453 37.6378L41.6098 39.5556L40.1837 38.1296C40.0327 37.9785 39.8605 37.8502 39.6726 37.7486L35.1885 34.3869C34.9035 34.1736 34.5633 34.0467 34.2082 34.0213L33.5493 33.9631C33.1804 33.9277 32.809 33.9984 32.4789 34.1669C32.1488 34.3355 31.8737 34.5949 31.6861 34.9145L30.8126 36.3509C30.7997 36.3752 30.7794 36.3947 30.7546 36.4066C30.7299 36.4186 30.702 36.4223 30.675 36.4173L29.3461 36.25C29.326 36.2474 29.3067 36.2406 29.2895 36.2299C29.2723 36.2192 29.2576 36.205 29.2465 36.1881C29.2353 36.1712 29.2279 36.1522 29.2248 36.1322C29.2216 36.1122 29.2229 36.0918 29.2284 36.0723L29.9244 33.6043C29.954 33.4893 30.0088 33.3824 30.0847 33.2911C30.1606 33.1998 30.2558 33.1266 30.3635 33.0766L34.27 31.1511ZM28.2984 31.9246C28.5929 31.9213 28.8822 31.8473 29.1421 31.7089L30.5286 30.9987C30.6492 30.9338 30.7842 30.9003 30.9211 30.9011C31.0581 30.9019 31.1927 30.9371 31.3125 31.0035L31.6564 31.1849L29.8658 32.0676C29.6165 32.187 29.3959 32.3588 29.2191 32.5713C29.0423 32.7839 28.9135 33.0321 28.8414 33.2989L28.1453 35.7669C28.0959 35.9422 28.0848 36.1262 28.113 36.3061C28.1411 36.4861 28.2078 36.6579 28.3084 36.8097C28.4091 36.9615 28.5413 37.0899 28.696 37.1859C28.8508 37.282 29.0245 37.3435 29.2052 37.3662L30.5341 37.5335C30.7765 37.5661 31.0231 37.5268 31.2434 37.4205C31.4637 37.3143 31.648 37.1458 31.7735 36.9359L32.6471 35.4995C32.7264 35.36 32.8445 35.2465 32.9871 35.1728C33.1296 35.0991 33.2905 35.0683 33.4502 35.0841L34.109 35.1423C34.2552 35.1493 34.396 35.1999 34.5134 35.2874L37.7031 37.6786C37.315 37.854 36.9859 38.1377 36.7553 38.4957C36.5248 38.8537 36.4026 39.2708 36.4035 39.6966C36.4035 39.7392 36.4051 39.7816 36.4074 39.8239C36.1063 39.8059 35.8047 39.8498 35.5212 39.9528C35.2377 40.0558 34.9782 40.2158 34.7589 40.4229C34.5395 40.6299 34.3649 40.8797 34.2457 41.1568C34.1266 41.4339 34.0654 41.7325 34.066 42.0342C34.066 42.0768 34.0675 42.1192 34.0699 42.1614C33.6739 42.1384 33.2791 42.2218 32.9263 42.4029C32.8872 42.357 32.8466 42.3115 32.8032 42.2684C32.5823 42.0474 32.317 41.8758 32.0249 41.7648C31.7329 41.6539 31.4206 41.6061 31.1086 41.6247C31.111 41.5825 31.1125 41.5403 31.1125 41.4974C31.1132 41.1958 31.0521 40.8972 30.9331 40.6201C30.814 40.3429 30.6395 40.0931 30.4203 39.886C30.201 39.6788 29.9417 39.5188 29.6583 39.4156C29.3748 39.3125 29.0733 39.2685 28.7722 39.2863C28.79 38.9852 28.746 38.6837 28.6429 38.4003C28.5399 38.1169 28.3799 37.8576 28.1728 37.6383C27.9658 37.419 27.7161 37.2445 27.439 37.1254C27.162 37.0062 26.8635 36.9451 26.5619 36.9456C26.271 36.9445 25.9827 37.0011 25.7138 37.1122C25.4449 37.2232 25.2007 37.3865 24.9953 37.5925L23.0209 39.5675L20.719 38.2196L24.327 31.9702L28.2984 31.9246ZM20.9673 28.6349L23.9571 30.361L19.3206 38.3915L16.3309 36.6654L20.9673 28.6349ZM33 29.1183C34.3037 29.1183 35.5782 28.7317 36.6623 28.0074C37.7463 27.2831 38.5912 26.2536 39.0901 25.0491C39.5891 23.8446 39.7196 22.5192 39.4653 21.2405C39.2109 19.9618 38.5831 18.7872 37.6612 17.8653C36.7393 16.9434 35.5648 16.3156 34.2861 16.0612C33.0074 15.8069 31.682 15.9374 30.4775 16.4363C29.273 16.9353 28.2434 17.7802 27.5191 18.8642C26.7948 19.9482 26.4082 21.2227 26.4082 22.5264C26.4102 24.2741 27.1053 25.9496 28.3411 27.1854C29.5768 28.4212 31.2523 29.1163 33 29.1183ZM33 17.0597C34.0812 17.0597 35.1382 17.3803 36.0372 17.981C36.9363 18.5817 37.637 19.4355 38.0508 20.4345C38.4646 21.4334 38.5728 22.5326 38.3619 23.5931C38.1509 24.6536 37.6303 25.6277 36.8657 26.3922C36.1012 27.1568 35.127 27.6775 34.0666 27.8884C33.0061 28.0993 31.9069 27.9911 30.9079 27.5773C29.909 27.1635 29.0552 26.4628 28.4545 25.5638C27.8538 24.6647 27.5332 23.6078 27.5332 22.5265C27.5348 21.0771 28.1113 19.6876 29.1362 18.6627C30.161 17.6378 31.5506 17.0614 33 17.0597ZM30.4977 22.5529C30.41 22.4323 30.3738 22.2817 30.3971 22.1343C30.4204 21.987 30.5013 21.8549 30.622 21.7672C30.7427 21.6795 30.8933 21.6433 31.0406 21.6666C31.188 21.6899 31.32 21.7708 31.4078 21.8915L32.2687 23.0764L35.1349 20.7285C35.2504 20.6351 35.3982 20.5912 35.546 20.6064C35.6938 20.6216 35.8295 20.6946 35.9237 20.8095C36.0178 20.9244 36.0627 21.0719 36.0485 21.2198C36.0342 21.3677 35.9621 21.5039 35.8478 21.5988L32.5205 24.3244C32.4613 24.3729 32.3927 24.4089 32.3191 24.43C32.2454 24.4511 32.1683 24.457 32.0923 24.4472C32.0163 24.4374 31.9431 24.4122 31.8772 24.3731C31.8113 24.3341 31.7541 24.282 31.709 24.22L30.4977 22.5529Z" fill="white"/>
</g>
<defs>
<clipPath id="clip0_21_62">
<rect width="36" height="36" fill="white" transform="translate(15 15)"/>
</clipPath>
</defs>
</svg>
