<svg width="66" height="66" viewBox="0 0 66 66" fill="none" xmlns="http://www.w3.org/2000/svg">
<circle cx="33" cy="33" r="32" fill="#FF9900" stroke="white" stroke-width="2"/>
<path d="M46.082 44.5073H46.0647C45.9948 44.5051 45.9259 44.489 45.8622 44.4601C45.7985 44.4312 45.7411 44.39 45.6933 44.3389C45.6455 44.2877 45.6084 44.2276 45.5839 44.1621C45.5594 44.0965 45.5481 44.0267 45.5507 43.9568C45.5786 43.0503 45.6643 40.8902 45.8549 40.4087C46.3735 39.0998 47.9533 34.648 46.509 32.3271C46.3808 32.1205 43.6827 26.8552 42.8566 25.2468C42.7822 25.0995 42.6683 24.9758 42.5275 24.8896C42.3868 24.8034 42.2248 24.7581 42.0597 24.7587C41.9193 24.7585 41.7808 24.792 41.656 24.8564C41.4456 24.9639 41.2864 25.1504 41.2133 25.3751C41.1403 25.5998 41.1593 25.8443 41.2662 26.055L44.0088 31.4379C44.0429 31.5002 44.0642 31.5688 44.0714 31.6396C44.0786 31.7103 44.0715 31.7818 44.0505 31.8497C44.0295 31.9177 43.9951 31.9807 43.9494 32.0351C43.9036 32.0895 43.8474 32.1342 43.784 32.1665C43.7207 32.1988 43.6515 32.218 43.5805 32.223C43.5096 32.2281 43.4384 32.2188 43.3711 32.1959C43.3038 32.1729 43.2418 32.1366 43.1888 32.0892C43.1358 32.0418 43.0928 31.9843 43.0625 31.92L40.3199 26.5378C40.2035 26.309 40.1333 26.0596 40.1134 25.8037C40.0934 25.5479 40.124 25.2906 40.2034 25.0465C40.3639 24.5537 40.7136 24.1448 41.1755 23.9097C41.6375 23.6747 42.1739 23.6328 42.6668 23.7933C42.9108 23.8727 43.1368 23.9995 43.3318 24.1663C43.5269 24.3331 43.6872 24.5366 43.8036 24.7654C45.1775 27.4489 47.268 31.5202 47.4121 31.7726C49.0676 34.4408 47.5642 38.9757 46.841 40.8038C46.752 41.0694 46.6517 42.6672 46.6106 43.9913C46.6066 44.1291 46.5492 44.2599 46.4506 44.3562C46.352 44.4525 46.2198 44.5067 46.082 44.5073Z" fill="white"/>
<path d="M40.2129 44.5071C40.072 44.5071 39.9369 44.4512 39.8372 44.3515C39.7376 44.2519 39.6816 44.1168 39.6816 43.9759V43.0084C39.6816 42.09 39.8895 39.8667 40.3709 38.8912C40.6485 38.3261 40.8843 36.2024 40.8922 35.7515L40.942 32.8821C40.9518 32.3804 41.16 31.9031 41.5209 31.5546C41.8818 31.2061 42.3662 31.0149 42.8678 31.0227H42.9847C43.4865 31.0319 43.9641 31.2399 44.3127 31.601C44.6613 31.962 44.8524 32.4467 44.8441 32.9485L44.7777 36.646C44.7764 36.7157 44.7615 36.7846 44.7337 36.8486C44.7058 36.9126 44.6657 36.9704 44.6155 37.0189C44.5653 37.0674 44.506 37.1055 44.4411 37.131C44.3762 37.1566 44.3069 37.1691 44.2371 37.1679C44.1673 37.1667 44.0985 37.1518 44.0345 37.1239C43.9705 37.0961 43.9127 37.0559 43.8642 37.0058C43.8157 36.9556 43.7776 36.8963 43.752 36.8314C43.7265 36.7665 43.7139 36.6971 43.7152 36.6274L43.7816 32.9299C43.7853 32.709 43.7011 32.4956 43.5476 32.3367C43.3941 32.1778 43.1837 32.0864 42.9628 32.0825H42.8459C42.6251 32.0788 42.4118 32.1629 42.2529 32.3163C42.0941 32.4697 42.0026 32.6799 41.9986 32.9007L41.9488 35.7701C41.9428 36.0981 41.7296 38.5239 41.3179 39.36C40.9693 40.0686 40.7382 42.0262 40.7382 43.0123V43.9799C40.7371 44.1191 40.6815 44.2523 40.5833 44.3509C40.4851 44.4495 40.3521 44.5056 40.2129 44.5071Z" fill="white"/>
<path d="M47.941 48.2073H38.3506C38.2097 48.2073 38.0746 48.1513 37.9749 48.0517C37.8753 47.9521 37.8193 47.817 37.8193 47.6761V43.9766C37.8193 43.8357 37.8753 43.7005 37.9749 43.6009C38.0746 43.5013 38.2097 43.4453 38.3506 43.4453H47.941C48.0819 43.4453 48.217 43.5013 48.3166 43.6009C48.4163 43.7005 48.4722 43.8357 48.4722 43.9766V47.6761C48.4722 47.817 48.4163 47.9521 48.3166 48.0517C48.217 48.1513 48.0819 48.2073 47.941 48.2073ZM38.8818 47.1448H47.4097V44.5078H38.8818V47.1448Z" fill="white"/>
<path d="M42.0398 46.3564H39.877C39.7361 46.3564 39.6009 46.3005 39.5013 46.2008C39.4017 46.1012 39.3457 45.9661 39.3457 45.8252C39.3457 45.6843 39.4017 45.5492 39.5013 45.4495C39.6009 45.3499 39.7361 45.2939 39.877 45.2939H42.0398C42.1807 45.2939 42.3158 45.3499 42.4155 45.4495C42.5151 45.5492 42.5711 45.6843 42.5711 45.8252C42.5711 45.9661 42.5151 46.1012 42.4155 46.2008C42.3158 46.3005 42.1807 46.3564 42.0398 46.3564Z" fill="white"/>
<path d="M19.9182 44.5073C19.78 44.5074 19.6473 44.4536 19.5481 44.3574C19.4489 44.2612 19.3911 44.1301 19.387 43.992C19.3458 42.6639 19.2455 41.0702 19.1546 40.7979C18.436 38.9764 16.9299 34.4415 18.5901 31.7733C18.7342 31.5209 20.8247 27.4496 22.1993 24.7654C22.4347 24.3038 22.8438 23.9546 23.3366 23.7947C23.8295 23.6347 24.3657 23.6771 24.8273 23.9124C25.2889 24.1478 25.6381 24.5569 25.7981 25.0498C25.958 25.5426 25.9157 26.0789 25.6803 26.5405L22.9377 31.9227C22.9073 31.987 22.8644 32.0445 22.8114 32.0919C22.7584 32.1393 22.6964 32.1756 22.6291 32.1986C22.5618 32.2215 22.4906 32.2308 22.4197 32.2257C22.3487 32.2207 22.2795 32.2015 22.2162 32.1692C22.1528 32.1369 22.0966 32.0922 22.0508 32.0378C22.005 31.9834 21.9707 31.9204 21.9497 31.8524C21.9287 31.7845 21.9216 31.713 21.9288 31.6423C21.936 31.5715 21.9573 31.5029 21.9914 31.4406L24.7333 26.0577C24.8405 25.8471 24.8597 25.6026 24.7867 25.3779C24.7138 25.1531 24.5546 24.9666 24.3442 24.8591C24.2194 24.7947 24.0809 24.7612 23.9404 24.7614C23.7755 24.7606 23.6136 24.8056 23.4729 24.8916C23.3321 24.9776 23.2181 25.1011 23.1436 25.2482C22.3195 26.8579 19.624 32.1232 19.4912 32.3298C18.0469 34.654 19.624 39.1032 20.1453 40.4114C20.3359 40.8929 20.4216 43.053 20.4495 43.9595C20.4538 44.1002 20.4021 44.2368 20.3057 44.3394C20.2093 44.442 20.0762 44.5022 19.9355 44.5067L19.9182 44.5073Z" fill="white"/>
<path d="M25.7871 44.5077C25.6462 44.5077 25.511 44.4518 25.4114 44.3521C25.3118 44.2525 25.2558 44.1174 25.2558 43.9765V43.0089C25.2558 42.0248 25.0247 40.0671 24.6761 39.3566C24.2644 38.5205 24.0512 36.0947 24.0452 35.7667L23.9954 32.8973C23.9911 32.6766 23.8995 32.4666 23.7407 32.3133C23.5819 32.1599 23.3688 32.0758 23.1481 32.0791H23.0312C22.9212 32.081 22.8126 32.1047 22.7118 32.1488C22.611 32.1928 22.5199 32.2564 22.4438 32.3359C22.3676 32.4153 22.308 32.5091 22.2683 32.6117C22.2286 32.7143 22.2096 32.8238 22.2124 32.9338L22.2788 36.6313C22.2813 36.7721 22.2278 36.9081 22.1301 37.0095C22.0323 37.1108 21.8983 37.1692 21.7575 37.1718H21.7476C21.6083 37.1719 21.4745 37.1172 21.3752 37.0195C21.2758 36.9219 21.2188 36.7892 21.2163 36.6499L21.1499 32.9524C21.1416 32.4506 21.3327 31.9659 21.6813 31.6049C22.0299 31.2438 22.5075 31.0359 23.0093 31.0266H23.1262C23.6278 31.0188 24.1122 31.21 24.4731 31.5585C24.834 31.907 25.0422 32.3843 25.052 32.886L25.1018 35.7554C25.1097 36.2063 25.3455 38.33 25.623 38.8951C26.1045 39.8726 26.3123 42.0959 26.3123 43.0123V43.9798C26.3115 44.1191 26.2559 44.2525 26.1577 44.3512C26.0595 44.45 25.9264 44.5062 25.7871 44.5077Z" fill="white"/>
<path d="M27.649 48.2073H18.0586C17.9177 48.2073 17.7826 48.1513 17.6829 48.0517C17.5833 47.9521 17.5273 47.817 17.5273 47.6761V43.9766C17.5273 43.8357 17.5833 43.7005 17.6829 43.6009C17.7826 43.5013 17.9177 43.4453 18.0586 43.4453H27.649C27.7899 43.4453 27.925 43.5013 28.0246 43.6009C28.1243 43.7005 28.1802 43.8357 28.1802 43.9766V47.6761C28.1802 47.817 28.1243 47.9521 28.0246 48.0517C27.925 48.1513 27.7899 48.2073 27.649 48.2073ZM18.5898 47.1448H27.1177V44.5078H18.5898V47.1448Z" fill="white"/>
<path d="M26.1231 46.3564H23.9602C23.8193 46.3564 23.6842 46.3005 23.5846 46.2008C23.4849 46.1012 23.429 45.9661 23.429 45.8252C23.429 45.6843 23.4849 45.5492 23.5846 45.4495C23.6842 45.3499 23.8193 45.2939 23.9602 45.2939H26.1231C26.264 45.2939 26.3991 45.3499 26.4987 45.4495C26.5983 45.5492 26.6543 45.6843 26.6543 45.8252C26.6543 45.9661 26.5983 46.1012 26.4987 46.2008C26.3991 46.3005 26.264 46.3564 26.1231 46.3564Z" fill="white"/>
<path d="M33.021 39.9923H32.766C31.5069 39.9754 30.274 39.6295 29.1899 38.9888C28.1058 38.3481 27.2082 37.4349 26.5862 36.34C25.944 35.2388 25.6009 33.9888 25.591 32.714C25.5811 31.4393 25.9048 30.1841 26.5298 29.0731C26.5384 29.0572 26.5484 29.0419 26.5583 29.0266L29.8886 24.2666C29.9286 24.2095 29.9795 24.1608 30.0384 24.1233C30.0973 24.0858 30.1629 24.0602 30.2316 24.0481C30.3004 24.036 30.3708 24.0375 30.4389 24.0526C30.5071 24.0677 30.5716 24.0961 30.6287 24.1361C30.6859 24.1762 30.7346 24.2271 30.7721 24.2859C30.8096 24.3448 30.8351 24.4104 30.8472 24.4792C30.8594 24.5479 30.8578 24.6183 30.8427 24.6865C30.8276 24.7546 30.7992 24.8191 30.7592 24.8762L27.4449 29.6137C26.9163 30.563 26.644 31.6335 26.6548 32.72C26.6656 33.8065 26.9592 34.8715 27.5066 35.81C28.0372 36.7451 28.8032 37.5252 29.7285 38.0727C30.6538 38.6202 31.7062 38.9162 32.7813 38.9311H33.108C34.1957 38.9215 35.2623 38.6296 36.2034 38.084C37.1445 37.5385 37.9277 36.7579 38.4766 35.8187C39.0255 34.8796 39.3211 33.814 39.3345 32.7263C39.348 31.6386 39.0788 30.5661 38.5533 29.6137L35.2396 24.8776C35.1996 24.8204 35.1712 24.7558 35.1562 24.6877C35.1411 24.6195 35.1396 24.549 35.1517 24.4803C35.1638 24.4115 35.1894 24.3458 35.227 24.2869C35.2645 24.2281 35.3133 24.1772 35.3705 24.1371C35.4277 24.0971 35.4922 24.0687 35.5604 24.0537C35.6285 24.0386 35.699 24.0371 35.7678 24.0492C35.8365 24.0614 35.9022 24.0869 35.9611 24.1245C36.02 24.162 36.0709 24.2108 36.1109 24.268L39.4412 29.026C39.4511 29.0412 39.4611 29.0565 39.4697 29.0725C40.0902 30.1857 40.4103 31.4413 40.3985 32.7158C40.3868 33.9903 40.0435 35.2398 39.4026 36.3414C38.7617 37.4431 37.8451 38.359 36.743 38.9991C35.6408 39.6392 34.3911 39.9815 33.1166 39.9923H33.021Z" fill="white"/>
<path d="M35.2919 25.1345H30.7098C30.4883 25.1345 30.2688 25.0909 30.0641 25.0061C29.8594 24.9213 29.6734 24.797 29.5167 24.6403C29.36 24.4836 29.2357 24.2976 29.1509 24.0929C29.0661 23.8882 29.0225 23.6687 29.0225 23.4471C29.0225 23.2256 29.0661 23.0061 29.1509 22.8014C29.2357 22.5967 29.36 22.4107 29.5167 22.254C29.6734 22.0973 29.8594 21.973 30.0641 21.8882C30.2688 21.8034 30.4883 21.7598 30.7098 21.7598H35.2919C35.5135 21.7598 35.7329 21.8034 35.9376 21.8882C36.1423 21.973 36.3283 22.0973 36.485 22.254C36.6417 22.4107 36.766 22.5967 36.8508 22.8014C36.9356 23.0061 36.9793 23.2256 36.9793 23.4471C36.9793 23.6687 36.9356 23.8882 36.8508 24.0929C36.766 24.2976 36.6417 24.4836 36.485 24.6403C36.3283 24.797 36.1423 24.9213 35.9376 25.0061C35.7329 25.0909 35.5135 25.1345 35.2919 25.1345ZM30.7098 22.8223C30.6278 22.8223 30.5465 22.8384 30.4707 22.8698C30.3949 22.9012 30.326 22.9473 30.268 23.0053C30.21 23.0633 30.1639 23.1322 30.1325 23.208C30.1011 23.2838 30.085 23.3651 30.085 23.4471C30.085 23.5292 30.1011 23.6105 30.1325 23.6863C30.1639 23.7621 30.21 23.831 30.268 23.889C30.326 23.947 30.3949 23.9931 30.4707 24.0245C30.5465 24.0559 30.6278 24.072 30.7098 24.072H35.2919C35.3739 24.072 35.4552 24.0559 35.531 24.0245C35.6068 23.9931 35.6757 23.947 35.7337 23.889C35.7918 23.831 35.8378 23.7621 35.8692 23.6863C35.9006 23.6105 35.9168 23.5292 35.9168 23.4471C35.9168 23.3651 35.9006 23.2838 35.8692 23.208C35.8378 23.1322 35.7918 23.0633 35.7337 23.0053C35.6757 22.9473 35.6068 22.9012 35.531 22.8698C35.4552 22.8384 35.3739 22.8223 35.2919 22.8223H30.7098Z" fill="white"/>
<path d="M35.0406 22.8226H30.9593C30.8469 22.8225 30.7374 22.7868 30.6466 22.7206C30.5558 22.6543 30.4884 22.561 30.4539 22.454L29.3821 19.1264C29.3544 19.0469 29.346 18.962 29.3576 18.8787C29.3691 18.7953 29.4003 18.7159 29.4485 18.647C29.8251 18.1051 30.361 17.793 30.9234 17.793C31.4859 17.793 32.0258 18.1071 32.4023 18.6562C32.5783 18.9119 32.7914 19.0547 32.9999 19.0547C33.2085 19.0547 33.4249 18.9132 33.5976 18.6562C33.9741 18.1071 34.5127 17.793 35.0771 17.793C35.6416 17.793 36.1728 18.1024 36.5467 18.6423C36.5607 18.6615 36.5734 18.6817 36.5846 18.7027C36.6146 18.759 36.6341 18.8202 36.6423 18.8834C36.6493 18.9377 36.6479 18.9928 36.6383 19.0467C36.6331 19.0735 36.6263 19.0999 36.6178 19.1257L35.546 22.4527C35.5118 22.5599 35.4444 22.6535 35.3536 22.72C35.2628 22.7865 35.1532 22.8224 35.0406 22.8226ZM31.3464 21.7601H34.6535L35.5234 19.066C35.4665 19.0033 35.3978 18.9524 35.3212 18.9163C35.2446 18.8802 35.1617 18.8595 35.0771 18.8555C34.8653 18.8555 34.6521 18.9963 34.4795 19.2539C34.1023 19.7998 33.5644 20.1132 32.9999 20.1132C32.4355 20.1132 31.8976 19.7998 31.5231 19.2539C31.3478 18.9976 31.1346 18.8555 30.9254 18.8555C30.8404 18.8592 30.757 18.8798 30.6799 18.9159C30.6029 18.952 30.5338 19.003 30.4765 19.066L31.3464 21.7601Z" fill="white"/>
<path d="M29.6802 23.4617C29.6447 23.4618 29.6093 23.4582 29.5746 23.4511L25.63 22.6542C25.5611 22.641 25.4955 22.6142 25.437 22.5754C25.3784 22.5366 25.3282 22.4866 25.2891 22.4283C25.25 22.3699 25.2229 22.3044 25.2093 22.2356C25.1957 22.1667 25.1959 22.0958 25.2098 22.027C25.2238 21.9582 25.2512 21.8928 25.2906 21.8347C25.33 21.7766 25.3805 21.7268 25.4392 21.6883C25.4979 21.6498 25.5637 21.6233 25.6327 21.6104C25.7017 21.5975 25.7726 21.5984 25.8412 21.613L27.8009 22.0114L26.2934 20.6992C26.2406 20.6536 26.1973 20.598 26.166 20.5356C26.1347 20.4732 26.116 20.4053 26.1109 20.3357C26.1059 20.266 26.1146 20.1961 26.1366 20.1299C26.1585 20.0636 26.1933 20.0023 26.239 19.9495C26.2846 19.8967 26.3403 19.8534 26.4026 19.8221C26.465 19.7908 26.533 19.7721 26.6026 19.767C26.6722 19.762 26.7421 19.7707 26.8084 19.7926C26.8746 19.8146 26.9359 19.8494 26.9887 19.8951L30.0321 22.5287C30.1128 22.5999 30.17 22.6938 30.1961 22.7982C30.2222 22.9025 30.216 23.0123 30.1784 23.1131C30.1408 23.2139 30.0734 23.3008 29.9853 23.3625C29.8972 23.4242 29.7924 23.4576 29.6848 23.4584L29.6802 23.4617Z" fill="white"/>
<path d="M32.9997 35.4456C32.3571 35.4449 31.7411 35.1893 31.2868 34.7349C30.8325 34.2805 30.5771 33.6644 30.5765 33.0218C30.5765 32.8809 30.6325 32.7458 30.7321 32.6461C30.8318 32.5465 30.9669 32.4905 31.1078 32.4905C31.2487 32.4905 31.3838 32.5465 31.4834 32.6461C31.5831 32.7458 31.639 32.8809 31.639 33.0218C31.639 33.2909 31.7188 33.554 31.8683 33.7777C32.0178 34.0015 32.2304 34.1759 32.479 34.2789C32.7276 34.3819 33.0012 34.4088 33.2651 34.3563C33.5291 34.3038 33.7715 34.1742 33.9618 33.9839C34.1521 33.7936 34.2817 33.5512 34.3342 33.2873C34.3867 33.0233 34.3598 32.7497 34.2568 32.5011C34.1538 32.2525 33.9794 32.04 33.7556 31.8904C33.5319 31.7409 33.2688 31.6611 32.9997 31.6611C32.5203 31.6613 32.0516 31.5192 31.6529 31.253C31.2542 30.9867 30.9434 30.6082 30.7599 30.1653C30.5763 29.7224 30.5282 29.2351 30.6217 28.7648C30.7151 28.2946 30.9459 27.8627 31.2849 27.5236C31.6238 27.1846 32.0557 26.9537 32.5259 26.8601C32.9961 26.7665 33.4835 26.8145 33.9264 26.9979C34.3694 27.1814 34.748 27.492 35.0143 27.8906C35.2807 28.2892 35.4229 28.7579 35.4229 29.2373C35.4229 29.3782 35.3669 29.5133 35.2673 29.613C35.1676 29.7126 35.0325 29.7686 34.8916 29.7686C34.7507 29.7686 34.6156 29.7126 34.516 29.613C34.4163 29.5133 34.3604 29.3782 34.3604 29.2373C34.3602 28.9682 34.2803 28.7052 34.1307 28.4815C33.9811 28.2579 33.7686 28.0836 33.5199 27.9807C33.2713 27.8778 32.9977 27.851 32.7338 27.9035C32.4699 27.9561 32.2275 28.0858 32.0373 28.2761C31.8471 28.4664 31.7176 28.7088 31.6651 28.9728C31.6127 29.2367 31.6397 29.5102 31.7427 29.7588C31.8457 30.0074 32.0201 30.2199 32.2438 30.3694C32.4676 30.5188 32.7306 30.5986 32.9997 30.5986C33.6425 30.5986 34.259 30.854 34.7136 31.3086C35.1681 31.7631 35.4235 32.3796 35.4235 33.0225C35.4235 33.6653 35.1681 34.2818 34.7136 34.7364C34.259 35.1909 33.6425 35.4463 32.9997 35.4463V35.4456Z" fill="white"/>
<path d="M33 27.8766C32.8591 27.8766 32.724 27.8206 32.6243 27.721C32.5247 27.6214 32.4688 27.4862 32.4688 27.3454V25.9355C32.4688 25.7947 32.5247 25.6595 32.6243 25.5599C32.724 25.4603 32.8591 25.4043 33 25.4043C33.1409 25.4043 33.276 25.4603 33.3757 25.5599C33.4753 25.6595 33.5312 25.7947 33.5312 25.9355V27.3454C33.5312 27.4862 33.4753 27.6214 33.3757 27.721C33.276 27.8206 33.1409 27.8766 33 27.8766Z" fill="white"/>
<path d="M33 36.8551C32.8591 36.8551 32.724 36.7991 32.6243 36.6995C32.5247 36.5999 32.4688 36.4648 32.4688 36.3239V34.9141C32.4688 34.7732 32.5247 34.638 32.6243 34.5384C32.724 34.4388 32.8591 34.3828 33 34.3828C33.1409 34.3828 33.276 34.4388 33.3757 34.5384C33.4753 34.638 33.5312 34.7732 33.5312 34.9141V36.3239C33.5312 36.4648 33.4753 36.5999 33.3757 36.6995C33.276 36.7991 33.1409 36.8551 33 36.8551Z" fill="white"/>
</svg>
