<svg width="66" height="66" viewBox="0 0 66 66" fill="none" xmlns="http://www.w3.org/2000/svg">
<circle cx="33" cy="33" r="32" fill="#FF9900" stroke="white" stroke-width="2"/>
<g clip-path="url(#clip0_21_94)">
<path d="M46.15 22.5257C41.7472 21.3193 37.3186 19.4409 33.3428 17.0935C33.1316 16.9688 32.8695 16.9688 32.6584 17.0935C28.5679 19.5083 24.3785 21.2851 19.8507 22.5257C19.5582 22.6058 19.3555 22.8716 19.3555 23.1749V30.0528C19.3555 37.1355 22.6229 41.8237 25.364 44.5094C28.315 47.401 31.7525 49 33.0006 49C34.2485 49 37.686 47.401 40.637 44.5094C43.378 41.8238 46.6453 37.1355 46.6453 30.0528V23.1749C46.6453 22.8716 46.4425 22.6058 46.15 22.5257ZM45.299 30.0527C45.299 36.6679 42.2515 41.0426 39.6947 43.5477C36.7928 46.3911 33.6901 47.6536 33.0006 47.6536C32.311 47.6536 29.2081 46.3911 26.3061 43.5477C23.7495 41.0425 20.7018 36.6679 20.7018 30.0527V23.6859C25.0316 22.4565 29.064 20.7408 33.0007 18.4531C36.8391 20.6801 41.0726 22.4811 45.299 23.6856V30.0527Z" fill="white"/>
<path d="M27.0337 23.6102C26.8974 23.2643 26.5066 23.0943 26.1606 23.2306C24.9581 23.7045 23.7239 24.1406 22.4922 24.527C22.2115 24.6151 22.0205 24.8751 22.0205 25.1692V27.7686C22.0205 28.1404 22.3219 28.4418 22.6936 28.4418C23.0653 28.4418 23.3668 28.1404 23.3668 27.7686V25.6611C24.4717 25.3036 25.5754 24.9082 26.6541 24.4831C27.0001 24.347 27.17 23.9561 27.0337 23.6102Z" fill="white"/>
<path d="M28.3124 23.7381C28.4027 23.7381 28.4944 23.72 28.5823 23.6816L28.5947 23.6762C28.9352 23.527 29.0886 23.1305 28.9394 22.7901C28.79 22.4495 28.3913 22.2955 28.0511 22.4446L28.0402 22.4493C27.6995 22.5981 27.5456 22.9942 27.6944 23.3348C27.8049 23.5877 28.0527 23.7381 28.3124 23.7381Z" fill="white"/>
<path d="M41.0209 38.7054C40.7099 38.5021 40.2927 38.5895 40.0892 38.9007C39.5345 39.7497 38.8837 40.5627 38.1547 41.3169C37.5552 41.937 36.9056 42.515 36.2239 43.0347C35.9284 43.2601 35.8715 43.6824 36.0968 43.9781C36.2294 44.1518 36.4298 44.2432 36.6326 44.2432C36.7749 44.2432 36.9184 44.1982 37.0402 44.1052C37.7756 43.5446 38.4762 42.9212 39.1226 42.2526C39.9107 41.4374 40.6151 40.5574 41.2162 39.6371C41.4197 39.3258 41.3321 38.9087 41.0209 38.7054Z" fill="white"/>
<path d="M34.6598 44.0904L34.6212 44.1131C34.2995 44.2994 34.1896 44.7112 34.3758 45.0329C34.5006 45.2485 34.7266 45.3689 34.959 45.3689C35.0734 45.3689 35.1895 45.3397 35.2956 45.2781L35.3401 45.2519C35.6609 45.064 35.7687 44.6517 35.5808 44.3309C35.3928 44.0102 34.9804 43.9027 34.6598 44.0904Z" fill="white"/>
<path d="M28.4122 31.6258C27.9989 31.2125 27.4492 30.985 26.8646 30.985C26.28 30.985 25.7302 31.2125 25.3167 31.6258C24.4634 32.4793 24.4634 33.8681 25.3167 34.7215L29.2915 38.6961C29.7049 39.1094 30.2545 39.337 30.8392 39.337C31.4239 39.337 31.9736 39.1094 32.387 38.696L40.6846 30.3984C41.5378 29.5447 41.5378 28.1562 40.6845 27.303C40.2711 26.8896 39.7214 26.6621 39.1367 26.6621C38.552 26.6621 38.0023 26.8897 37.5888 27.303L30.8392 34.0527L28.4122 31.6258ZM38.5408 28.255C38.6999 28.0959 38.9116 28.0084 39.1367 28.0084C39.362 28.0084 39.5735 28.0959 39.7326 28.255C40.0611 28.5834 40.0611 29.118 39.7325 29.4466L31.4351 37.7441C31.276 37.9032 31.0644 37.9907 30.8392 37.9907C30.6141 37.9907 30.4024 37.9032 30.2433 37.7441L26.2687 33.7696C25.9401 33.441 25.9401 32.9064 26.2686 32.578C26.4277 32.4189 26.6394 32.3312 26.8646 32.3312C27.0897 32.3312 27.3013 32.4188 27.4604 32.5778L30.3632 35.4807C30.4895 35.6069 30.6606 35.6778 30.8392 35.6778C31.0177 35.6778 31.1889 35.607 31.315 35.4807L38.5408 28.255Z" fill="white"/>
</g>
<defs>
<clipPath id="clip0_21_94">
<rect width="32" height="32" fill="white" transform="translate(17 17)"/>
</clipPath>
</defs>
</svg>
