<svg width="125" height="217" viewBox="0 0 125 217" fill="none" xmlns="http://www.w3.org/2000/svg">
<path d="M90.6851 179.473L89.9834 186.38L89.8664 187.785L89.3986 193.17L89.2816 194.458L88.8138 199.492L88.6968 200.78L88.112 205.697L87.9951 206.868L87.6442 210.38C87.6442 210.731 87.5272 211.2 87.4103 211.551C87.2933 212.019 87.0594 212.37 86.8255 212.721C86.2407 213.541 85.7728 214.009 85.305 214.361C85.0711 214.595 84.7202 214.712 84.4863 214.829C83.9015 215.063 83.1997 215.297 82.498 215.297H42.4977C41.796 215.297 41.0942 215.18 40.5094 214.829C40.2755 214.712 39.9246 214.595 39.6907 214.361C39.1059 213.892 38.6381 213.541 38.2872 212.956C37.9363 212.37 37.7024 211.902 37.5854 211.551C37.4685 211.2 37.3515 210.848 37.3515 210.38L37.0006 206.868L36.8837 205.697L36.4158 200.78L36.2989 199.492L35.831 194.458L35.7141 193.17L35.2462 187.785L35.1293 186.38L34.3105 179.473H90.6851Z" fill="white"/>
<path d="M90.6842 179.355L89.9825 186.263L89.8655 187.668L89.2807 193.053L89.1638 194.341L88.6959 199.492L88.579 200.78L88.1111 205.58L87.9942 206.868L87.6433 210.38C87.6433 210.731 87.5263 211.082 87.4094 211.434C87.2924 211.902 87.0585 212.253 86.8246 212.604C86.2398 213.424 85.7719 213.892 85.3041 214.243C85.0702 214.477 84.7193 214.595 84.4854 214.712C83.9006 214.946 83.1988 215.063 82.4971 215.063H42.4968C41.7951 215.063 41.0933 214.946 40.5085 214.712C40.1577 214.595 39.9237 214.477 39.6898 214.243C39.222 214.009 38.9881 213.775 38.8711 213.424H76.5321C77.2339 213.424 77.9356 213.307 78.5204 213.073C78.7544 212.956 79.1052 212.721 79.3392 212.604C79.807 212.253 80.2748 211.785 80.6257 211.316C81.0936 210.614 81.3275 210.263 81.4444 209.795C81.5614 209.443 81.6784 209.092 81.6784 208.624L82.0292 205.112L82.1462 203.941L82.614 199.024L82.731 197.853L83.1988 192.702L83.3158 191.414L83.9006 186.029L84.0175 184.624L84.6023 179.355H90.6842Z" fill="#CAD7EF"/>
<path d="M89.9817 179.473H35.0106C33.6071 179.473 32.4375 178.303 32.4375 176.898C32.4375 175.493 33.6071 174.322 35.0106 174.322H89.9817C91.3852 174.322 92.5548 175.493 92.5548 176.898C92.5548 178.303 91.3852 179.473 89.9817 179.473Z" fill="white"/>
<path d="M123.082 49.1706C117.936 9.24861 86.5909 0.819336 62.4972 0.819336C38.4035 0.819336 7.0583 9.24861 1.91207 49.1706C-4.75464 100.683 38.9883 133.463 38.9883 133.463H85.8892C85.8892 133.463 129.749 100.683 123.082 49.1706Z" fill="white"/>
<path d="M116.299 49.1706C111.737 9.24861 83.901 0.819336 62.4974 0.819336C41.3277 0.819336 13.8421 9.24861 9.28069 49.1706C3.4327 100.683 41.9124 133.463 41.9124 133.463H83.3162C83.3162 133.463 122.147 100.683 116.299 49.1706Z" fill="#CAD7EF"/>
<path d="M109.865 49.1707C105.772 9.24873 81.3273 0.936523 62.4968 0.936523C43.9002 0.936523 19.6895 9.3658 15.7129 49.2878C10.5666 100.8 44.368 133.581 44.368 133.581H80.7425C80.8594 133.464 115.012 100.683 109.865 49.1707Z" fill="white"/>
<path d="M73.9601 133.463H51.036C51.036 133.463 29.6324 100.683 32.9072 49.1706C35.2464 11.473 49.3986 1.873 60.9776 0.936409C61.6793 0.936409 62.2641 0.819336 62.9659 0.819336C64.9542 0.819336 66.9425 1.05348 68.9308 1.63885C79.3402 4.44861 90.2175 15.6876 92.3228 49.1706C95.4807 100.683 73.9601 133.463 73.9601 133.463Z" fill="#CAD7EF"/>
<path d="M71.7371 133.463H53.2574C53.2574 133.463 35.9474 100.683 38.6375 49.1706C40.5088 11.473 51.8539 1.873 61.2107 0.936409C61.7955 0.936409 62.2633 0.819336 62.8481 0.819336C64.3686 0.819336 66.006 1.05348 67.6435 1.63885C76.0646 4.44861 84.8365 15.6876 86.474 49.1706C89.0471 100.683 71.7371 133.463 71.7371 133.463Z" fill="white"/>
<path d="M85.0696 138.263H39.9232C38.6366 138.263 37.584 137.209 37.584 135.922C37.584 134.634 38.6366 133.58 39.9232 133.58H84.9527C86.2392 133.58 87.2919 134.634 87.2919 135.922C87.2919 137.209 86.3562 138.263 85.0696 138.263Z" fill="white"/>
<path d="M82.4983 217.001H42.4981C41.6794 217.001 40.8607 216.883 40.1589 216.532C39.808 216.415 39.5741 216.181 39.2232 216.064C38.5215 215.596 37.9367 215.01 37.5858 214.425C37.1179 213.723 36.884 213.254 36.7671 212.786C36.6501 212.435 36.5331 211.966 36.5331 211.498L33.4922 179.537H91.6212L88.5802 211.498C88.5802 211.966 88.4633 212.435 88.3463 212.786C88.2293 213.254 87.9954 213.723 87.7615 214.074C87.0597 215.01 86.4749 215.596 85.8901 215.947C85.5393 216.181 85.3054 216.298 84.9545 216.532C84.1358 216.883 83.317 217.001 82.4983 217.001ZM35.3635 181.293L38.2875 211.264C38.2875 211.615 38.4045 211.849 38.5215 212.201C38.6384 212.552 38.7554 212.903 38.9893 213.254C39.4571 213.84 39.808 214.308 40.2759 214.542C40.5098 214.776 40.7437 214.893 40.9776 215.01C41.4455 215.244 42.0302 215.362 42.615 215.362H82.6153C83.2001 215.362 83.6679 215.244 84.2527 215.01C84.4866 214.893 84.7206 214.776 84.9545 214.659C85.4223 214.308 85.7732 213.957 86.1241 213.605C86.4749 213.02 86.7089 212.669 86.8258 212.318C86.9428 211.966 86.9428 211.732 87.0597 211.381L89.9837 181.41H35.3635V181.293Z" fill="url(#paint0_linear_15_1311)"/>
<path d="M58.15 139.052L51.9375 175.165L53.6665 175.463L59.8789 139.35L58.15 139.052Z" fill="url(#paint1_linear_15_1311)"/>
<path d="M47.7594 139.073L41.5469 175.186L43.2758 175.484L49.4884 139.371L47.7594 139.073Z" fill="url(#paint2_linear_15_1311)"/>
<path d="M40.6071 139.053L34.3945 175.166L36.1235 175.464L42.336 139.351L40.6071 139.053Z" fill="url(#paint3_linear_15_1311)"/>
<path d="M70.7985 175.556L64.5996 139.381L66.237 139.029L72.5529 175.205L70.7985 175.556Z" fill="url(#paint4_linear_15_1311)"/>
<path d="M76.6622 139.025L74.9336 139.324L81.1791 175.429L82.9077 175.13L76.6622 139.025Z" fill="url(#paint5_linear_15_1311)"/>
<path d="M83.7989 139.03L82.0703 139.329L88.3158 175.434L90.0444 175.135L83.7989 139.03Z" fill="url(#paint6_linear_15_1311)"/>
<path d="M89.982 181.293H35.011C33.1396 181.293 31.6191 179.771 31.6191 177.898C31.6191 176.025 33.1396 174.503 35.011 174.503H89.982C91.8534 174.503 93.3739 176.025 93.3739 177.898C93.3739 179.771 91.8534 181.293 89.982 181.293ZM35.011 176.259C34.0753 176.259 33.3735 176.961 33.3735 177.898C33.3735 178.835 34.0753 179.537 35.011 179.537H89.982C90.9177 179.537 91.6195 178.835 91.6195 177.898C91.6195 176.961 90.9177 176.259 89.982 176.259H35.011Z" fill="url(#paint7_linear_15_1311)"/>
<path d="M86.2399 135.4H38.7542C38.0525 134.932 -5.57352 101.566 1.09319 50.1708C6.59029 7.32196 41.9121 1 62.497 1C83.0819 1 118.404 7.32196 123.901 50.0537C130.568 101.449 86.8247 134.815 86.4738 135.166L86.2399 135.4ZM39.339 133.527H85.6551C89.0469 130.834 128.462 98.7562 122.263 50.2879C117.117 10.9512 86.9416 2.7561 62.497 2.7561C38.0525 2.7561 7.87685 10.9512 2.84758 50.2879C-3.46824 98.7562 35.9472 130.951 39.339 133.527Z" fill="url(#paint8_linear_15_1311)"/>
<path d="M81.2102 135.4H44.017C43.4322 134.815 9.63089 101.449 14.7771 50.1708C19.1046 7.32196 46.4732 1 62.4967 1C78.6371 1 106.357 7.32196 110.684 50.0537C115.83 101.332 81.795 134.698 81.4442 135.049L81.2102 135.4ZM44.7188 133.527H80.3915C83.4325 130.483 113.725 98.405 108.93 50.1708C104.953 10.9512 81.5611 2.7561 62.4967 2.7561C43.6662 2.7561 20.5081 10.9512 16.5315 50.2879C11.7362 98.405 41.6779 130.483 44.7188 133.527Z" fill="url(#paint9_linear_15_1311)"/>
<path d="M72.3219 135.4H52.6727C52.3218 134.581 35.1287 101.332 37.7018 50.1708C39.924 7.43903 54.3101 1 62.7312 1C72.7897 1 85.1875 9.54635 87.2927 50.1708C89.8658 101.332 72.6728 134.581 72.5558 134.932L72.3219 135.4ZM53.8423 133.527H71.2692C73.3745 129.312 87.9945 97.5855 85.6553 50.1708C84.0179 19.6147 75.9476 2.7561 62.7312 2.7561C54.8949 2.7561 41.5615 8.96099 39.4562 50.1708C37.0001 97.5855 51.737 129.429 53.8423 133.527Z" fill="url(#paint10_linear_15_1311)"/>
<path d="M85.0698 140.083H39.9233C38.1689 140.083 36.6484 138.562 36.6484 136.805C36.6484 135.049 38.1689 133.527 39.9233 133.527H84.9528C86.7072 133.527 88.2277 135.049 88.2277 136.805C88.2277 138.562 86.8242 140.083 85.0698 140.083ZM39.9233 135.401C39.1046 135.401 38.4028 136.103 38.4028 136.922C38.4028 137.742 39.1046 138.444 39.9233 138.444H84.9528C85.7715 138.444 86.4733 137.742 86.4733 136.922C86.4733 136.103 85.7715 135.401 84.9528 135.401H39.9233Z" fill="url(#paint11_linear_15_1311)"/>
<defs>
<linearGradient id="paint0_linear_15_1311" x1="33.4922" y1="198.269" x2="91.6212" y2="198.269" gradientUnits="userSpaceOnUse">
<stop stop-color="#F7C301"/>
<stop offset="1" stop-color="#F47E37"/>
</linearGradient>
<linearGradient id="paint1_linear_15_1311" x1="52.802" y1="175.314" x2="59.0261" y2="139.203" gradientUnits="userSpaceOnUse">
<stop stop-color="#F7C301"/>
<stop offset="1" stop-color="#F47E37"/>
</linearGradient>
<linearGradient id="paint2_linear_15_1311" x1="42.4114" y1="175.335" x2="48.6354" y2="139.224" gradientUnits="userSpaceOnUse">
<stop stop-color="#F7C301"/>
<stop offset="1" stop-color="#F47E37"/>
</linearGradient>
<linearGradient id="paint3_linear_15_1311" x1="35.259" y1="175.315" x2="41.4831" y2="139.204" gradientUnits="userSpaceOnUse">
<stop stop-color="#F7C301"/>
<stop offset="1" stop-color="#F47E37"/>
</linearGradient>
<linearGradient id="paint4_linear_15_1311" x1="64.5996" y1="157.293" x2="72.5529" y2="157.293" gradientUnits="userSpaceOnUse">
<stop stop-color="#F7C301"/>
<stop offset="1" stop-color="#F47E37"/>
</linearGradient>
<linearGradient id="paint5_linear_15_1311" x1="78.0563" y1="157.377" x2="79.785" y2="157.078" gradientUnits="userSpaceOnUse">
<stop stop-color="#F7C301"/>
<stop offset="1" stop-color="#F47E37"/>
</linearGradient>
<linearGradient id="paint6_linear_15_1311" x1="85.1931" y1="157.382" x2="86.9218" y2="157.083" gradientUnits="userSpaceOnUse">
<stop stop-color="#F7C301"/>
<stop offset="1" stop-color="#F47E37"/>
</linearGradient>
<linearGradient id="paint7_linear_15_1311" x1="31.6191" y1="177.898" x2="93.3739" y2="177.898" gradientUnits="userSpaceOnUse">
<stop stop-color="#F7C301"/>
<stop offset="1" stop-color="#F47E37"/>
</linearGradient>
<linearGradient id="paint8_linear_15_1311" x1="0.400391" y1="68.2001" x2="124.592" y2="68.2001" gradientUnits="userSpaceOnUse">
<stop stop-color="#F7C301"/>
<stop offset="1" stop-color="#F47E37"/>
</linearGradient>
<linearGradient id="paint9_linear_15_1311" x1="14.2441" y1="68.2001" x2="111.214" y2="68.2001" gradientUnits="userSpaceOnUse">
<stop stop-color="#F7C301"/>
<stop offset="1" stop-color="#F47E37"/>
</linearGradient>
<linearGradient id="paint10_linear_15_1311" x1="37.4395" y1="68.2001" x2="87.5552" y2="68.2001" gradientUnits="userSpaceOnUse">
<stop stop-color="#F7C301"/>
<stop offset="1" stop-color="#F47E37"/>
</linearGradient>
<linearGradient id="paint11_linear_15_1311" x1="36.6484" y1="136.805" x2="88.2277" y2="136.805" gradientUnits="userSpaceOnUse">
<stop stop-color="#F7C301"/>
<stop offset="1" stop-color="#F47E37"/>
</linearGradient>
</defs>
</svg>
