<svg width="222" height="230" viewBox="0 0 222 230" fill="none" xmlns="http://www.w3.org/2000/svg">
<path d="M218.361 139.174C218.361 138.481 131.755 80.5961 131.479 79.9037C130.925 78.3804 129.819 76.8571 128.988 75.4723C126.913 71.7333 127.605 51.792 127.605 43.4831C127.605 23.4033 116.261 7.33946 112.11 2.07717C111.695 1.52324 111.142 1.38477 110.588 1.38477C109.897 1.38477 109.343 1.66172 108.928 2.07717C104.778 7.33946 93.4333 23.5418 93.4333 43.4831C93.4333 51.6535 94.125 71.5948 92.0498 75.4723C91.2197 76.8571 90.2513 78.3804 89.5596 79.9037C89.2829 80.5961 2.6777 138.481 2.6777 139.174C2.40101 145.128 1.15588 162.3 2.6777 161.885C7.3815 160.777 89.9746 124.495 89.9746 124.495C89.9746 124.495 92.6032 127.68 94.54 136.266H84.7174C84.7174 136.266 82.9189 137.927 83.0573 140.282C83.1956 142.636 84.7174 163.685 84.7174 163.685L88.1761 175.179H93.4333L96.0619 164.516H100.212L103.671 196.782L83.0573 212.569L83.1956 217.277L107.821 215.477L110.588 224.617L113.355 215.477L137.981 217.277L138.119 212.569L117.506 196.782L120.964 164.516H125.115L127.743 175.179H133.001L136.459 163.685C136.459 163.685 137.981 142.774 138.119 140.282C138.258 137.927 136.459 136.266 136.459 136.266H126.637C128.573 127.68 131.202 124.495 131.202 124.495C131.202 124.495 213.795 160.638 218.499 161.885C219.882 162.3 218.637 145.128 218.361 139.174Z" fill="white"/>
<path d="M127.882 136.681L125.115 136.127C126.913 127.957 126.222 120.479 126.222 120.479V43.7601C126.222 24.5112 115.569 9.00129 111.004 3.18507C105.608 9.00129 94.9554 24.5112 94.9554 43.7601V120.34C94.9554 120.479 94.402 127.957 96.2005 136.127L93.4336 136.681C91.4967 128.095 92.1885 120.479 92.1885 120.063V43.6216C92.1885 23.4034 103.256 7.33951 107.96 1.24633C108.652 0.415446 109.482 0 110.589 0C111.557 0 112.525 0.415446 113.217 1.24633C117.921 7.20103 128.989 23.4034 128.989 43.6216V120.202C128.989 120.34 129.68 127.957 127.882 136.681Z" fill="url(#paint0_linear_15_1544)"/>
<path d="M110.59 229.463L106.855 216.862L81.8142 218.662L81.6758 211.184L102.289 196.089C101.874 191.243 99.3842 164.654 96.7556 150.252L99.5225 149.698C102.428 165.624 105.056 196.228 105.056 196.505V197.336L84.3044 212.569L84.4427 215.754L108.792 213.954L110.59 219.77L112.389 213.954L136.6 215.754L136.738 212.569L115.986 197.474L116.124 196.643C116.124 196.366 118.891 165.762 121.658 149.837L124.425 150.252C121.935 164.654 119.445 191.104 118.891 196.089L139.505 211.184L139.228 218.662L114.326 216.862L110.59 229.463Z" fill="url(#paint1_linear_15_1544)"/>
<path d="M98.9675 165.208H82.6425L81.8125 139.035C81.8125 136.681 83.611 134.881 85.9629 134.881H95.6472C97.9991 134.881 99.7976 136.681 99.7976 138.897L98.9675 165.208ZM85.2712 162.439H96.3389L97.169 139.035C97.169 138.204 96.4772 137.789 95.7855 137.789H86.1012C85.4095 137.789 84.7178 138.204 84.7178 139.035L85.2712 162.439Z" fill="url(#paint2_linear_15_1544)"/>
<path d="M98.5518 139.035H83.1953V141.805H98.5518V139.035Z" fill="url(#paint3_linear_15_1544)"/>
<path d="M94.541 176.703H87.2087L83.75 162.439H98.1381L94.541 176.703ZM89.2838 173.933H92.3275L94.4027 165.209H87.0703L89.2838 173.933Z" fill="url(#paint4_linear_15_1544)"/>
<path d="M138.534 165.208H122.209L121.379 139.035C121.379 136.681 123.177 134.881 125.529 134.881H135.214C137.566 134.881 139.364 136.681 139.364 138.897L138.534 165.208ZM124.838 162.439H135.905L136.735 139.035C136.735 138.204 136.044 137.789 135.352 137.789H125.668C124.976 137.789 124.284 138.204 124.284 139.035L124.838 162.439Z" fill="url(#paint5_linear_15_1544)"/>
<path d="M138.122 139.035H122.766V141.805H138.122V139.035Z" fill="url(#paint6_linear_15_1544)"/>
<path d="M134.107 176.703H126.775L123.316 162.439H137.704L134.107 176.703ZM128.85 173.933H131.894L133.969 165.209H126.637L128.85 173.933Z" fill="url(#paint7_linear_15_1544)"/>
<path d="M93.1585 129.895C87.4863 128.233 87.9013 117.847 87.9013 116.739V83.0878C87.9013 74.502 93.1585 73.8096 93.4352 73.8096L93.7119 76.5792L93.5735 75.1944L93.7119 76.5792C93.5735 76.5792 90.6682 77.1331 90.6682 83.0878V116.877C90.5299 119.37 90.8066 126.432 93.8502 127.402L93.1585 129.895Z" fill="url(#paint8_linear_15_1544)"/>
<path d="M2.54054 163.823C2.1255 163.823 1.57208 163.685 1.15704 163.408C0.465307 162.993 0.0502702 162.162 0.188617 161.331L0.880341 141.251C1.01869 139.312 1.98715 137.65 3.50897 136.543L88.4539 80.1807L89.9758 82.5348L5.03079 138.897C4.20071 139.451 3.64729 140.42 3.64729 141.389L2.95557 160.777L89.6991 123.387L90.8058 125.88L3.50897 163.546C3.09392 163.685 2.81724 163.823 2.54054 163.823Z" fill="url(#paint9_linear_15_1544)"/>
<path d="M128.02 129.895L127.328 127.263C130.372 126.432 130.648 119.231 130.648 116.877V83.0878C130.648 77.1331 127.605 76.5792 127.605 76.5792L127.882 73.8096C128.158 73.8096 133.415 74.502 133.415 83.0878V116.877C133.415 117.847 133.83 128.371 128.02 129.895Z" fill="url(#paint10_linear_15_1544)"/>
<path d="M218.777 163.824C218.5 163.824 218.085 163.824 217.809 163.685L130.512 126.018L131.618 123.526L218.362 160.915L217.67 141.528C217.67 140.559 217.117 139.589 216.287 139.035L131.342 82.6735L132.864 80.3193L217.809 136.681C219.33 137.789 220.437 139.451 220.437 141.39L221.267 161.469C221.267 162.3 220.852 162.993 220.299 163.547C219.607 163.685 219.192 163.824 218.777 163.824Z" fill="url(#paint11_linear_15_1544)"/>
<path d="M123.594 35.3132H117.23C115.155 33.6514 112.803 32.959 110.59 32.959C108.238 32.959 106.024 33.6514 104.226 35.0362C103.811 35.3132 97.4466 35.3132 97.4466 35.3132L97.3082 34.2054C97.1699 33.6514 97.1699 32.959 97.1699 32.4051C97.1699 25.758 103.119 20.2188 110.59 20.2188C117.922 20.2188 124.009 25.6195 124.009 32.4051C124.009 32.959 124.009 33.6514 123.871 34.2054L123.594 35.3132ZM118.199 32.5436H121.242C121.242 27.1428 116.538 22.9884 110.59 22.9884C104.779 22.9884 99.9368 27.1428 99.9368 32.4051C99.9368 32.5436 102.98 32.5436 102.98 32.5436C105.194 31.0203 107.823 30.1894 110.59 30.1894C113.356 30.1894 115.985 31.0203 118.199 32.5436Z" fill="url(#paint12_linear_15_1544)"/>
<path d="M111.972 20.6328H109.205V32.4037H111.972V20.6328Z" fill="url(#paint13_linear_15_1544)"/>
<path d="M100.873 25.4641L98.7363 27.2236L104.537 34.2823L106.674 32.5227L100.873 25.4641Z" fill="url(#paint14_linear_15_1544)"/>
<path d="M120.074 25.5486L114.449 32.3936L116.586 34.1532L122.211 27.3082L120.074 25.5486Z" fill="url(#paint15_linear_15_1544)"/>
<path d="M92.1875 56.3621V46.5299L96.1995 45.422C96.8913 45.2836 97.5831 45.4221 98.1364 45.8375C98.6898 46.2529 98.9665 46.9454 98.9665 47.6378V52.9C98.9665 53.8694 98.2748 54.8388 97.3063 54.9773L92.1875 56.3621ZM94.9545 48.6071V52.7616L96.1995 52.4846V48.3302L94.9545 48.6071Z" fill="url(#paint16_linear_15_1544)"/>
<path d="M128.99 56.3621L123.871 54.9773C122.903 54.7003 122.211 53.8694 122.211 52.9V47.6378C122.211 46.9454 122.488 46.2529 123.041 45.8375C123.594 45.4221 124.286 45.2836 124.978 45.422L128.99 46.5299V56.3621ZM124.978 52.3461L126.223 52.6231V48.4686L124.978 48.1917V52.3461Z" fill="url(#paint17_linear_15_1544)"/>
<path d="M98.1384 68.9639C97.1699 68.9639 96.3398 68.133 96.3398 67.1636V64.394C96.3398 63.4246 97.1699 62.5938 98.1384 62.5938C99.1068 62.5938 99.9369 63.4246 99.9369 64.394V67.3021C99.9369 68.2715 99.1068 68.9639 98.1384 68.9639Z" fill="url(#paint18_linear_15_1544)"/>
<path d="M98.1384 80.8739C97.1699 80.8739 96.3398 80.043 96.3398 79.0736V76.1655C96.3398 75.1961 97.1699 74.3652 98.1384 74.3652C99.1068 74.3652 99.9369 75.1961 99.9369 76.1655V79.0736C99.9369 80.043 99.1068 80.8739 98.1384 80.8739Z" fill="url(#paint19_linear_15_1544)"/>
<path d="M98.1384 92.7821C97.1699 92.7821 96.3398 91.9512 96.3398 90.9818V88.0737C96.3398 87.1043 97.1699 86.2734 98.1384 86.2734C99.1068 86.2734 99.9369 87.1043 99.9369 88.0737V90.9818C99.9369 91.9512 99.1068 92.7821 98.1384 92.7821Z" fill="url(#paint20_linear_15_1544)"/>
<path d="M98.1384 104.692C97.1699 104.692 96.3398 103.861 96.3398 102.892V99.9838C96.3398 99.0145 97.1699 98.1836 98.1384 98.1836C99.1068 98.1836 99.9369 99.0145 99.9369 99.9838V102.892C99.9369 103.861 99.1068 104.692 98.1384 104.692Z" fill="url(#paint21_linear_15_1544)"/>
<path d="M98.1384 116.601C97.1699 116.601 96.3398 115.77 96.3398 114.801V111.893C96.3398 110.924 97.1699 110.093 98.1384 110.093C99.1068 110.093 99.9369 110.924 99.9369 111.893V114.801C99.9369 115.77 99.1068 116.601 98.1384 116.601Z" fill="url(#paint22_linear_15_1544)"/>
<path d="M123.041 68.9639C122.072 68.9639 121.242 68.133 121.242 67.1636V64.394C121.242 63.4246 122.072 62.5938 123.041 62.5938C124.009 62.5938 124.839 63.4246 124.839 64.394V67.3021C124.839 68.2715 124.009 68.9639 123.041 68.9639Z" fill="url(#paint23_linear_15_1544)"/>
<path d="M123.041 80.8739C122.072 80.8739 121.242 80.043 121.242 79.0736V76.1655C121.242 75.1961 122.072 74.3652 123.041 74.3652C124.009 74.3652 124.839 75.1961 124.839 76.1655V79.0736C124.839 80.043 124.009 80.8739 123.041 80.8739Z" fill="url(#paint24_linear_15_1544)"/>
<path d="M123.041 92.7821C122.072 92.7821 121.242 91.9512 121.242 90.9818V88.0737C121.242 87.1043 122.072 86.2734 123.041 86.2734C124.009 86.2734 124.839 87.1043 124.839 88.0737V90.9818C124.839 91.9512 124.009 92.7821 123.041 92.7821Z" fill="url(#paint25_linear_15_1544)"/>
<path d="M123.041 104.692C122.072 104.692 121.242 103.861 121.242 102.892V99.9838C121.242 99.0145 122.072 98.1836 123.041 98.1836C124.009 98.1836 124.839 99.0145 124.839 99.9838V102.892C124.839 103.861 124.009 104.692 123.041 104.692Z" fill="url(#paint26_linear_15_1544)"/>
<path d="M123.041 116.601C122.072 116.601 121.242 115.77 121.242 114.801V111.893C121.242 110.924 122.072 110.093 123.041 110.093C124.009 110.093 124.839 110.924 124.839 111.893V114.801C124.839 115.77 124.009 116.601 123.041 116.601Z" fill="url(#paint27_linear_15_1544)"/>
<path d="M114.738 215.477H111.971V184.041L110.588 178.225L109.204 184.041V215.477H106.438V183.487L110.588 166.454L114.738 183.903V215.477Z" fill="url(#paint28_linear_15_1544)"/>
<path d="M113.356 182.519H107.822V185.288H113.356V182.519Z" fill="url(#paint29_linear_15_1544)"/>
<path d="M106.917 192.614L103.07 195.558L104.751 197.758L108.598 194.814L106.917 192.614Z" fill="url(#paint30_linear_15_1544)"/>
<path d="M114.039 192.552L112.455 194.823L116.766 197.835L118.349 195.564L114.039 192.552Z" fill="url(#paint31_linear_15_1544)"/>
<defs>
<linearGradient id="paint0_linear_15_1544" x1="92.0684" y1="68.3405" x2="129.119" y2="68.3405" gradientUnits="userSpaceOnUse">
<stop stop-color="#F7C301"/>
<stop offset="1" stop-color="#F47E37"/>
</linearGradient>
<linearGradient id="paint1_linear_15_1544" x1="81.6758" y1="189.581" x2="139.505" y2="189.581" gradientUnits="userSpaceOnUse">
<stop stop-color="#F7C301"/>
<stop offset="1" stop-color="#F47E37"/>
</linearGradient>
<linearGradient id="paint2_linear_15_1544" x1="81.8125" y1="150.045" x2="99.7976" y2="150.045" gradientUnits="userSpaceOnUse">
<stop stop-color="#F7C301"/>
<stop offset="1" stop-color="#F47E37"/>
</linearGradient>
<linearGradient id="paint3_linear_15_1544" x1="83.1953" y1="140.42" x2="98.5518" y2="140.42" gradientUnits="userSpaceOnUse">
<stop stop-color="#F7C301"/>
<stop offset="1" stop-color="#F47E37"/>
</linearGradient>
<linearGradient id="paint4_linear_15_1544" x1="83.75" y1="169.571" x2="98.1381" y2="169.571" gradientUnits="userSpaceOnUse">
<stop stop-color="#F7C301"/>
<stop offset="1" stop-color="#F47E37"/>
</linearGradient>
<linearGradient id="paint5_linear_15_1544" x1="121.379" y1="150.045" x2="139.364" y2="150.045" gradientUnits="userSpaceOnUse">
<stop stop-color="#F7C301"/>
<stop offset="1" stop-color="#F47E37"/>
</linearGradient>
<linearGradient id="paint6_linear_15_1544" x1="122.766" y1="140.42" x2="138.122" y2="140.42" gradientUnits="userSpaceOnUse">
<stop stop-color="#F7C301"/>
<stop offset="1" stop-color="#F47E37"/>
</linearGradient>
<linearGradient id="paint7_linear_15_1544" x1="123.316" y1="169.571" x2="137.704" y2="169.571" gradientUnits="userSpaceOnUse">
<stop stop-color="#F7C301"/>
<stop offset="1" stop-color="#F47E37"/>
</linearGradient>
<linearGradient id="paint8_linear_15_1544" x1="87.8945" y1="101.852" x2="93.8502" y2="101.852" gradientUnits="userSpaceOnUse">
<stop stop-color="#F7C301"/>
<stop offset="1" stop-color="#F47E37"/>
</linearGradient>
<linearGradient id="paint9_linear_15_1544" x1="0.162109" y1="122.002" x2="90.8058" y2="122.002" gradientUnits="userSpaceOnUse">
<stop stop-color="#F7C301"/>
<stop offset="1" stop-color="#F47E37"/>
</linearGradient>
<linearGradient id="paint10_linear_15_1544" x1="127.328" y1="101.852" x2="133.422" y2="101.852" gradientUnits="userSpaceOnUse">
<stop stop-color="#F7C301"/>
<stop offset="1" stop-color="#F47E37"/>
</linearGradient>
<linearGradient id="paint11_linear_15_1544" x1="130.512" y1="122.071" x2="221.267" y2="122.071" gradientUnits="userSpaceOnUse">
<stop stop-color="#F7C301"/>
<stop offset="1" stop-color="#F47E37"/>
</linearGradient>
<linearGradient id="paint12_linear_15_1544" x1="97.1699" y1="27.766" x2="124.009" y2="27.766" gradientUnits="userSpaceOnUse">
<stop stop-color="#F7C301"/>
<stop offset="1" stop-color="#F47E37"/>
</linearGradient>
<linearGradient id="paint13_linear_15_1544" x1="109.205" y1="26.5183" x2="111.972" y2="26.5183" gradientUnits="userSpaceOnUse">
<stop stop-color="#F7C301"/>
<stop offset="1" stop-color="#F47E37"/>
</linearGradient>
<linearGradient id="paint14_linear_15_1544" x1="101.637" y1="30.7529" x2="103.775" y2="28.9954" gradientUnits="userSpaceOnUse">
<stop stop-color="#F7C301"/>
<stop offset="1" stop-color="#F47E37"/>
</linearGradient>
<linearGradient id="paint15_linear_15_1544" x1="115.518" y1="33.2734" x2="121.15" y2="26.4342" gradientUnits="userSpaceOnUse">
<stop stop-color="#F7C301"/>
<stop offset="1" stop-color="#F47E37"/>
</linearGradient>
<linearGradient id="paint16_linear_15_1544" x1="92.1875" y1="50.8661" x2="98.9665" y2="50.8661" gradientUnits="userSpaceOnUse">
<stop stop-color="#F7C301"/>
<stop offset="1" stop-color="#F47E37"/>
</linearGradient>
<linearGradient id="paint17_linear_15_1544" x1="122.211" y1="50.8661" x2="128.99" y2="50.8661" gradientUnits="userSpaceOnUse">
<stop stop-color="#F7C301"/>
<stop offset="1" stop-color="#F47E37"/>
</linearGradient>
<linearGradient id="paint18_linear_15_1544" x1="96.3398" y1="65.7788" x2="99.9369" y2="65.7788" gradientUnits="userSpaceOnUse">
<stop stop-color="#F7C301"/>
<stop offset="1" stop-color="#F47E37"/>
</linearGradient>
<linearGradient id="paint19_linear_15_1544" x1="96.3398" y1="77.6195" x2="99.9369" y2="77.6195" gradientUnits="userSpaceOnUse">
<stop stop-color="#F7C301"/>
<stop offset="1" stop-color="#F47E37"/>
</linearGradient>
<linearGradient id="paint20_linear_15_1544" x1="96.3398" y1="89.5277" x2="99.9369" y2="89.5277" gradientUnits="userSpaceOnUse">
<stop stop-color="#F7C301"/>
<stop offset="1" stop-color="#F47E37"/>
</linearGradient>
<linearGradient id="paint21_linear_15_1544" x1="96.3398" y1="101.438" x2="99.9369" y2="101.438" gradientUnits="userSpaceOnUse">
<stop stop-color="#F7C301"/>
<stop offset="1" stop-color="#F47E37"/>
</linearGradient>
<linearGradient id="paint22_linear_15_1544" x1="96.3398" y1="113.347" x2="99.9369" y2="113.347" gradientUnits="userSpaceOnUse">
<stop stop-color="#F7C301"/>
<stop offset="1" stop-color="#F47E37"/>
</linearGradient>
<linearGradient id="paint23_linear_15_1544" x1="121.242" y1="65.7788" x2="124.839" y2="65.7788" gradientUnits="userSpaceOnUse">
<stop stop-color="#F7C301"/>
<stop offset="1" stop-color="#F47E37"/>
</linearGradient>
<linearGradient id="paint24_linear_15_1544" x1="121.242" y1="77.6195" x2="124.839" y2="77.6195" gradientUnits="userSpaceOnUse">
<stop stop-color="#F7C301"/>
<stop offset="1" stop-color="#F47E37"/>
</linearGradient>
<linearGradient id="paint25_linear_15_1544" x1="121.242" y1="89.5277" x2="124.839" y2="89.5277" gradientUnits="userSpaceOnUse">
<stop stop-color="#F7C301"/>
<stop offset="1" stop-color="#F47E37"/>
</linearGradient>
<linearGradient id="paint26_linear_15_1544" x1="121.242" y1="101.438" x2="124.839" y2="101.438" gradientUnits="userSpaceOnUse">
<stop stop-color="#F7C301"/>
<stop offset="1" stop-color="#F47E37"/>
</linearGradient>
<linearGradient id="paint27_linear_15_1544" x1="121.242" y1="113.347" x2="124.839" y2="113.347" gradientUnits="userSpaceOnUse">
<stop stop-color="#F7C301"/>
<stop offset="1" stop-color="#F47E37"/>
</linearGradient>
<linearGradient id="paint28_linear_15_1544" x1="106.438" y1="190.965" x2="114.738" y2="190.965" gradientUnits="userSpaceOnUse">
<stop stop-color="#F7C301"/>
<stop offset="1" stop-color="#F47E37"/>
</linearGradient>
<linearGradient id="paint29_linear_15_1544" x1="107.822" y1="183.903" x2="113.356" y2="183.903" gradientUnits="userSpaceOnUse">
<stop stop-color="#F7C301"/>
<stop offset="1" stop-color="#F47E37"/>
</linearGradient>
<linearGradient id="paint30_linear_15_1544" x1="103.911" y1="196.658" x2="107.76" y2="193.717" gradientUnits="userSpaceOnUse">
<stop stop-color="#F7C301"/>
<stop offset="1" stop-color="#F47E37"/>
</linearGradient>
<linearGradient id="paint31_linear_15_1544" x1="114.61" y1="196.329" x2="116.196" y2="194.06" gradientUnits="userSpaceOnUse">
<stop stop-color="#F7C301"/>
<stop offset="1" stop-color="#F47E37"/>
</linearGradient>
</defs>
</svg>
