<svg width="143" height="236" viewBox="0 0 143 236" fill="none" xmlns="http://www.w3.org/2000/svg">
<path d="M100.199 116.124C100.199 116.124 125.366 121.378 134.787 144.952C134.787 144.952 138.69 89.9893 103.833 89.9893L100.199 116.124Z" fill="white"/>
<path d="M104.371 110.195L103.564 100.361L100.199 116.123C121.463 118.817 134.787 144.952 134.787 144.952C132.768 122.454 104.371 110.195 104.371 110.195Z" fill="#CAD7EF"/>
<path d="M135.865 151.15L133.578 145.492C124.561 122.86 100.201 117.606 100.066 117.471L100.605 114.777C101.547 115.046 122.676 119.627 133.578 139.026C133.308 129.191 131.424 109.254 121.196 98.6114C116.62 93.7617 110.833 91.3369 103.969 91.3369V88.6426C111.641 88.6426 118.1 91.3368 123.215 96.7254C137.75 112.083 136.404 143.74 136.269 145.088L135.865 151.15Z" fill="url(#paint0_linear_15_1486)"/>
<path d="M41.1203 116.124C41.1203 116.124 15.9533 121.378 6.53244 144.952C6.53244 144.952 4.37914 89.9893 37.4866 89.9893L41.1203 116.124Z" fill="white"/>
<path d="M36.8122 110.195L37.6197 100.361L40.9843 116.123C19.7202 118.817 6.39648 144.952 6.39648 144.952C8.41523 122.454 36.8122 110.195 36.8122 110.195Z" fill="#CAD7EF"/>
<path d="M5.4532 151.419L5.18408 145.088C5.18408 143.741 4.24195 111.813 18.9115 96.456C23.8911 91.2021 30.2166 88.6426 37.484 88.6426V91.3369C30.8895 91.3369 25.237 93.7617 20.7958 98.342C10.5675 108.984 8.41403 128.922 7.8757 138.891C18.7769 119.627 39.7719 115.046 40.714 114.912L41.2524 117.606C40.9832 117.606 16.7583 122.995 7.74119 145.627L5.4532 151.419Z" fill="url(#paint1_linear_15_1486)"/>
<path d="M70.8616 2.15625C70.8616 2.15625 38.0234 40.6844 38.0234 88.2383C38.0234 105.212 42.1955 120.974 47.5788 134.31C47.5788 134.31 72.0729 140.911 94.1445 134.31C99.5279 120.974 103.7 105.212 103.7 88.2383C103.7 40.6844 70.8616 2.15625 70.8616 2.15625Z" fill="white"/>
<path d="M83.1092 136.6C107.469 80.6937 77.1875 27.8859 77.1875 27.8859L86.4737 25.8652C86.4737 25.8652 119.177 77.5953 94.1449 134.444L83.1092 136.6Z" fill="#CAD7EF"/>
<path d="M70.0547 3.09861C70.0547 3.09861 77.4568 15.7617 78.8027 28.1554L86.3393 25.7305C86.4739 25.8652 73.1501 1.07791 70.0547 3.09861Z" fill="#CAD7EF"/>
<path d="M72.2077 138.62C58.6148 138.62 47.8481 135.791 47.1752 135.657C39.9077 118.952 36.6777 103.325 36.6777 88.2375C36.6777 40.6836 69.516 1.61657 69.9197 1.21243L70.9964 0L72.0731 1.21243C72.3423 1.61657 105.315 40.6836 105.315 88.2375C105.315 103.191 102.085 118.952 95.6251 134.848L95.0868 135.657H94.4138C86.8772 137.947 79.206 138.62 72.2077 138.62ZM48.521 133.232C52.4239 134.175 73.8227 138.89 93.2026 133.232C99.2589 117.875 102.354 102.787 102.354 88.2375C102.354 46.4762 76.3797 11.316 70.8618 4.31084C65.3439 11.316 39.3694 46.4762 39.3694 88.2375C39.3694 102.787 42.4648 117.875 48.521 133.232Z" fill="url(#paint2_linear_15_1486)"/>
<path d="M92.9321 189.812C92.9321 189.812 94.9508 215.812 70.8604 234.133C50.2691 218.506 48.6542 197.221 48.6542 191.429C48.6542 190.486 48.6542 189.812 48.6542 189.812C44.8859 191.563 41.3867 199.377 41.3867 199.377C42.1942 179.305 47.0392 171.222 47.0392 171.222H94.4125C94.4125 171.222 99.2576 179.305 100.065 199.377C100.2 199.377 96.835 191.698 92.9321 189.812Z" fill="white"/>
<path d="M92.9329 189.811C92.9329 189.811 94.9517 215.811 70.8613 234.132C88.7609 211.5 83.9159 176.879 83.9159 176.879C87.1459 177.956 90.3759 181.998 90.3759 181.998C90.2413 174.05 85.5309 172.433 85.5309 172.433L94.2788 171.355C94.548 171.355 99.3929 179.438 100.2 199.511C100.2 199.376 96.8358 191.697 92.9329 189.811Z" fill="#CAD7EF"/>
<path d="M70.8603 235.883L70.0529 235.209C50.1345 220.256 47.5775 200.049 47.4429 192.64C45.4241 194.795 43.54 198.432 42.7325 200.049L39.9062 206.515L40.1754 199.51C40.9829 179.438 45.8279 171.086 45.9625 170.681L46.3662 170.008H95.3545L95.7583 170.681C96.0275 171.086 100.738 179.303 101.545 199.51L101.814 206.515L98.9883 200.049C98.3153 198.432 96.4312 194.795 94.2779 192.64C94.0087 200.049 91.4516 220.391 71.6679 235.209L70.8603 235.883ZM50.2691 187.655L50.1346 189.945C50.1346 189.945 50.1346 190.484 50.1346 191.427C50.1346 197.355 51.615 217.427 70.9949 232.515C93.3357 215.002 91.7208 190.35 91.7208 190.08L91.5861 187.79L93.7395 188.733C95.6237 189.676 97.3732 191.562 98.719 193.583C97.6424 181.189 94.9507 174.588 94.0087 172.702H48.2503C47.3083 174.723 44.6166 181.324 43.54 193.583C44.8858 191.562 46.6354 189.541 48.5196 188.733L50.2691 187.655Z" fill="url(#paint3_linear_15_1486)"/>
<path d="M70.8616 103.865C79.4837 103.865 86.4733 96.8686 86.4733 88.2381C86.4733 79.6077 79.4837 72.6113 70.8616 72.6113C62.2395 72.6113 55.25 79.6077 55.25 88.2381C55.25 96.8686 62.2395 103.865 70.8616 103.865Z" fill="#CAD7EF"/>
<path d="M70.8617 105.212C61.5755 105.212 53.9043 97.6676 53.9043 88.2376C53.9043 78.9423 61.4409 71.2637 70.8617 71.2637C80.1479 71.2637 87.8192 78.8076 87.8192 88.2376C87.8192 97.6676 80.2825 105.212 70.8617 105.212ZM70.8617 73.9579C63.0559 73.9579 56.5959 80.2895 56.5959 88.2376C56.5959 96.1857 62.9213 102.517 70.8617 102.517C78.6675 102.517 85.1276 96.051 85.1276 88.2376C85.1276 80.4242 78.8021 73.9579 70.8617 73.9579Z" fill="url(#paint4_linear_15_1486)"/>
<path d="M79.7454 57.522C79.7454 52.6723 75.8425 48.6309 70.8629 48.6309C66.0179 48.6309 61.9805 52.5376 61.9805 57.522C61.9805 62.3717 65.8833 66.4131 70.8629 66.4131C75.7079 66.2784 79.7454 62.3717 79.7454 57.522Z" fill="#CAD7EF"/>
<path d="M70.861 67.6269C65.2086 67.6269 60.6328 63.0466 60.6328 57.3886C60.6328 51.7306 65.2086 47.1504 70.861 47.1504C76.5135 47.1504 81.0894 51.7306 81.0894 57.3886C81.0894 63.0466 76.5135 67.6269 70.861 67.6269ZM70.861 49.9794C66.689 49.9794 63.3244 53.3472 63.3244 57.5233C63.3244 61.6995 66.689 65.0673 70.861 65.0673C75.0331 65.0673 78.3978 61.6995 78.3978 57.5233C78.3978 53.3472 75.0331 49.9794 70.861 49.9794Z" fill="url(#paint5_linear_15_1486)"/>
<path d="M94.1433 134.31C94.1433 134.31 108.678 149.936 108.678 169.066C108.678 169.066 96.0275 172.972 70.7259 172.972C45.4242 172.972 32.7734 169.066 32.7734 169.066C32.7734 149.936 47.3083 134.31 47.3083 134.31C47.3083 134.31 72.0717 139.159 94.1433 134.31Z" fill="white"/>
<path d="M94.1435 134.31L87.1453 135.926C87.1453 135.926 99.6614 155.19 98.9885 164.351C98.9885 164.351 84.0498 171.086 57.4023 172.568C57.4023 172.568 91.3173 174.05 108.948 169.066C108.813 169.066 104.776 144.278 94.1435 134.31Z" fill="#CAD7EF"/>
<path d="M70.8607 174.455C45.6937 174.455 33.0429 170.683 32.5046 170.413L31.5625 170.144V169.201C31.5625 149.667 45.9629 134.175 46.5012 133.502L47.0396 132.963L47.7125 133.098C47.9817 133.098 72.2066 137.813 93.7399 133.098C95.624 134.175 110.024 149.802 110.024 169.201V170.144L109.082 170.413C108.679 170.548 96.0277 174.455 70.8607 174.455ZM34.3887 168.123C37.7533 168.931 50.135 171.76 70.9953 171.76C91.8557 171.76 104.103 169.066 107.602 168.123C107.198 152.092 96.297 138.621 93.8745 135.792C74.0908 139.833 52.5574 136.465 48.2508 135.792C45.6937 138.621 34.7925 152.092 34.3887 168.123Z" fill="url(#paint6_linear_15_1486)"/>
<path d="M71.4013 29.502C61.9805 29.502 55.2514 27.2119 54.8477 27.0771L55.7897 24.5176C55.9243 24.5176 70.863 29.6367 86.6092 24.5176L87.4167 27.0771C81.7642 28.9631 76.2463 29.502 71.4013 29.502Z" fill="url(#paint7_linear_15_1486)"/>
<path opacity="0.3" d="M142.999 159.5C142.999 156.806 140.845 154.65 138.154 154.65C135.462 154.65 133.309 156.806 133.309 159.5C133.309 162.194 135.462 212.847 138.154 212.847C140.845 212.847 142.999 162.194 142.999 159.5Z" fill="#545F7F"/>
<path opacity="0.65" d="M141.923 159.5C141.923 157.345 140.174 155.729 138.155 155.729C136.136 155.729 134.387 157.48 134.387 159.5C134.387 161.656 136.136 204.899 138.155 204.899C140.174 204.899 141.923 161.521 141.923 159.5Z" fill="#6E2FBF"/>
<path d="M140.844 159.365C140.844 157.883 139.633 156.671 138.153 156.671C136.672 156.671 135.461 157.883 135.461 159.365C135.461 160.847 136.672 196.816 138.153 196.816C139.633 196.816 140.844 160.982 140.844 159.365Z" fill="url(#paint8_linear_15_1486)"/>
<path d="M140.307 159.365C140.307 158.153 139.365 157.345 138.288 157.345C137.212 157.345 136.27 158.288 136.27 159.365C136.27 160.578 137.212 178.764 138.288 178.764C139.365 178.764 140.307 160.578 140.307 159.365Z" fill="#BD79FF"/>
<path d="M139.633 159.365C139.633 158.556 138.96 157.883 138.152 157.883C137.345 157.883 136.672 158.556 136.672 159.365C136.672 160.173 137.345 160.847 138.152 160.847C138.96 160.847 139.633 160.173 139.633 159.365Z" fill="#F2F1FE"/>
<path opacity="0.3" d="M10.0181 159.5C10.0181 156.806 7.8648 154.65 5.17313 154.65C2.48147 154.65 0.328125 156.806 0.328125 159.5C0.328125 162.194 2.48147 212.847 5.17313 212.847C7.8648 212.847 10.0181 162.194 10.0181 159.5Z" fill="#545F7F"/>
<path opacity="0.65" d="M8.94292 159.5C8.94292 157.345 7.19327 155.729 5.17453 155.729C3.1558 155.729 1.40625 157.48 1.40625 159.5C1.40625 161.656 3.1558 204.899 5.17453 204.899C7.19327 204.899 8.94292 161.521 8.94292 159.5Z" fill="#6E2FBF"/>
<path d="M7.86574 159.365C7.86574 157.883 6.65444 156.671 5.17403 156.671C3.69362 156.671 2.48242 157.883 2.48242 159.365C2.48242 160.847 3.69362 196.816 5.17403 196.816C6.65444 196.816 7.86574 160.982 7.86574 159.365Z" fill="url(#paint9_linear_15_1486)"/>
<path d="M7.32663 159.365C7.32663 158.153 6.38452 157.345 5.30785 157.345C4.23117 157.345 3.28906 158.288 3.28906 159.365C3.28906 160.578 4.23117 178.764 5.30785 178.764C6.38452 178.764 7.32663 160.578 7.32663 159.365Z" fill="#BD79FF"/>
<path d="M6.65235 159.365C6.65235 158.556 5.9794 157.883 5.17188 157.883C4.36435 157.883 3.69141 158.556 3.69141 159.365C3.69141 160.173 4.36435 160.847 5.17188 160.847C5.9794 160.847 6.65235 160.173 6.65235 159.365Z" fill="#F2F1FE"/>
<defs>
<linearGradient id="paint0_linear_15_1486" x1="100.066" y1="119.896" x2="136.36" y2="119.896" gradientUnits="userSpaceOnUse">
<stop stop-color="#F7C301"/>
<stop offset="1" stop-color="#F47E37"/>
</linearGradient>
<linearGradient id="paint1_linear_15_1486" x1="5.17188" y1="120.031" x2="41.2524" y2="120.031" gradientUnits="userSpaceOnUse">
<stop stop-color="#F7C301"/>
<stop offset="1" stop-color="#F47E37"/>
</linearGradient>
<linearGradient id="paint2_linear_15_1486" x1="36.6777" y1="69.3102" x2="105.315" y2="69.3102" gradientUnits="userSpaceOnUse">
<stop stop-color="#F7C301"/>
<stop offset="1" stop-color="#F47E37"/>
</linearGradient>
<linearGradient id="paint3_linear_15_1486" x1="39.9063" y1="202.945" x2="101.814" y2="202.945" gradientUnits="userSpaceOnUse">
<stop stop-color="#F7C301"/>
<stop offset="1" stop-color="#F47E37"/>
</linearGradient>
<linearGradient id="paint4_linear_15_1486" x1="53.9043" y1="88.2376" x2="87.8192" y2="88.2376" gradientUnits="userSpaceOnUse">
<stop stop-color="#F7C301"/>
<stop offset="1" stop-color="#F47E37"/>
</linearGradient>
<linearGradient id="paint5_linear_15_1486" x1="60.6328" y1="57.3886" x2="81.0894" y2="57.3886" gradientUnits="userSpaceOnUse">
<stop stop-color="#F7C301"/>
<stop offset="1" stop-color="#F47E37"/>
</linearGradient>
<linearGradient id="paint6_linear_15_1486" x1="31.5625" y1="153.709" x2="110.024" y2="153.709" gradientUnits="userSpaceOnUse">
<stop stop-color="#F7C301"/>
<stop offset="1" stop-color="#F47E37"/>
</linearGradient>
<linearGradient id="paint7_linear_15_1486" x1="54.8477" y1="27.0098" x2="87.4167" y2="27.0098" gradientUnits="userSpaceOnUse">
<stop stop-color="#F7C301"/>
<stop offset="1" stop-color="#F47E37"/>
</linearGradient>
<linearGradient id="paint8_linear_15_1486" x1="135.461" y1="176.743" x2="140.844" y2="176.743" gradientUnits="userSpaceOnUse">
<stop stop-color="#F7C301"/>
<stop offset="1" stop-color="#F47E37"/>
</linearGradient>
<linearGradient id="paint9_linear_15_1486" x1="2.48242" y1="176.743" x2="7.86574" y2="176.743" gradientUnits="userSpaceOnUse">
<stop stop-color="#F7C301"/>
<stop offset="1" stop-color="#F47E37"/>
</linearGradient>
</defs>
</svg>
