<svg width="98" height="98" viewBox="0 0 98 98" fill="none" xmlns="http://www.w3.org/2000/svg">
<circle cx="49" cy="49" r="47" fill="#FF9900" stroke="white" stroke-width="4"/>
<path d="M69.8131 38.8037H57.618L58.3575 37.2083C58.3585 37.2062 58.3585 37.2042 58.3596 37.2021C58.3871 37.1407 58.4074 37.0778 58.4199 37.0128C58.4214 37.004 58.4214 36.9951 58.4225 36.9863C58.4292 36.9447 58.4355 36.9026 58.4355 36.8589V33.5288C58.4355 33.0691 58.0626 32.6963 57.603 32.6963H28.186C27.7264 32.6963 27.3535 33.0691 27.3535 33.5288V36.8589C27.3535 36.8994 27.3598 36.9379 27.3655 36.9769C27.3676 36.9894 27.367 37.0024 27.3696 37.0154C27.3816 37.0783 27.4014 37.1397 27.4284 37.1995C27.4294 37.2026 27.43 37.2057 27.431 37.2088L37.1592 58.2023V64.4719C37.1592 64.9316 37.532 65.3044 37.9917 65.3044H47.879C48.3386 65.3044 48.7115 64.9316 48.7115 64.4719V58.026L50.0141 55.2149H69.8131C70.2728 55.2149 70.6456 54.842 70.6456 54.3824V39.6362C70.6456 39.1765 70.2728 38.8037 69.8131 38.8037ZM68.9806 53.5498H50.7858H49.868H49.6761V51.9841V51.7985V50.134V44.7452V43.0802V40.4692H55.0118H55.9296H56.8469H68.9806V53.5498ZM29.4897 37.6914L56.2993 37.6904L56.2988 37.6914L55.7835 38.8037H48.8436C48.3839 38.8037 48.011 39.1765 48.011 39.6362V43.0796H31.9867L29.4897 37.6914ZM29.0186 34.3613H56.7699V36.0258L29.0186 36.0264V34.3613ZM47.2654 57.1862H38.5231L36.0266 51.798H48.011V54.3818C48.011 54.6242 48.1166 54.8405 48.282 54.9928L47.2654 57.1862ZM48.011 44.7452V50.134H35.2549L32.7584 44.7452H48.011ZM38.8242 58.8512H47.0459V63.6394H38.8242V58.8512ZM67.315 51.0523C67.315 51.512 66.9422 51.8848 66.4825 51.8848H65.6151H61.4525H57.2899H52.9968C52.9531 52.3034 52.6032 52.6305 52.1731 52.6305C51.8445 52.6305 51.5632 52.4386 51.428 52.1625C51.3848 52.0746 51.3583 51.9784 51.3489 51.877C51.2184 51.8645 51.0972 51.824 50.9912 51.7584C50.9116 51.709 50.8419 51.6461 50.7832 51.5733C50.6672 51.4303 50.5949 51.2509 50.5949 51.0523C50.5949 50.6774 50.844 50.3643 51.1846 50.2598C51.235 50.2442 51.2865 50.2338 51.3406 50.2281V48.3904V44.7447V43.0796V42.9663C51.3406 42.5066 51.7134 42.1338 52.1731 42.1338C52.6328 42.1338 53.0056 42.5066 53.0056 42.9663V43.0796V44.7447V44.7967V46.7768V48.757V50.2192H56.4574V48.0982C56.4574 47.6385 56.8302 47.2656 57.2899 47.2656C57.7496 47.2656 58.1224 47.6385 58.1224 48.0982V50.2192H60.62V49.3467C60.62 48.887 60.9928 48.5142 61.4525 48.5142C61.9122 48.5142 62.285 48.887 62.285 49.3467V50.2192H64.7826V45.9126C64.7826 45.4529 65.1554 45.0801 65.6151 45.0801C66.0748 45.0801 66.4476 45.4529 66.4476 45.9126V50.2192H66.482C66.9427 50.2198 67.315 50.5921 67.315 51.0523ZM57.2904 45.0889C58.4573 45.2558 59.2774 45.5408 59.8759 45.7488C60.5784 45.9927 60.829 46.0629 61.0979 45.9641C61.7 45.7426 62.3807 44.9844 62.9813 44.3162C63.3989 43.8508 63.7941 43.4114 64.195 43.1025C65.0962 42.4088 66.4029 41.8972 66.4586 41.8764C66.8865 41.7089 67.3686 41.9226 67.5355 42.3506C67.7024 42.7791 67.4902 43.2611 67.0618 43.428C67.0503 43.4327 65.9198 43.8758 65.2111 44.4223C64.9303 44.6381 64.5855 45.0224 64.22 45.429C63.4899 46.2412 62.6626 47.1622 61.673 47.5272C60.8212 47.8413 60.1296 47.6005 59.3288 47.3223C58.7646 47.1263 58.0621 46.8824 57.0538 46.7373C56.6456 46.6801 56.3264 46.7456 56.084 46.9422C55.5942 47.339 55.4346 48.1996 55.4148 48.4975C55.3857 48.9369 55.0191 49.2765 54.5849 49.2765C54.5672 49.2765 54.55 49.276 54.5324 49.2749C54.0753 49.2468 53.7264 48.8558 53.7524 48.3982C53.7628 48.2157 53.8881 46.587 55.0258 45.6568C55.6332 45.1591 56.4163 44.9631 57.2904 45.0889Z" fill="white"/>
</svg>
