<svg width="98" height="98" viewBox="0 0 98 98" fill="none" xmlns="http://www.w3.org/2000/svg">
<circle cx="49" cy="49" r="47" fill="#FF9900" stroke="white" stroke-width="4"/>
<path d="M49 71.1529C36.2125 71.1529 25.8469 60.7873 25.8469 47.9998C25.8469 35.2123 36.2125 24.8467 49 24.8467C61.7875 24.8467 72.1532 35.2123 72.1532 47.9998C72.1532 60.7873 61.7875 71.1529 49 71.1529ZM49 27.3654C37.6657 27.3654 28.3657 36.6654 28.3657 47.9998C28.3657 59.3342 37.6657 68.6342 49 68.6342C60.3344 68.6342 69.6344 59.3342 69.6344 47.9998C69.6344 36.6654 60.3344 27.3654 49 27.3654Z" fill="white"/>
<path d="M35.4375 64.759L33.1125 63.6933C33.7907 62.0465 35.9219 61.1746 38.3438 60.109C40.6688 59.0433 43.575 57.784 43.575 56.234V54.1027C42.7032 53.4246 41.3469 51.8746 41.1532 49.6465C40.475 48.9683 39.4094 47.709 39.4094 46.159C39.4094 45.1902 39.7969 44.4152 40.0875 43.9309C39.8938 42.8652 39.5063 40.734 39.5063 39.0871C39.5063 33.759 43.1875 30.2715 49 30.2715C50.6469 30.2715 52.6813 30.7558 53.7469 31.9183C56.3625 32.4027 58.4938 35.5027 58.4938 39.0871C58.4938 41.4121 58.1063 43.3496 57.8157 44.2215C58.1063 44.7059 58.3969 45.384 58.3969 46.159C58.3969 47.9996 57.525 49.1621 56.6532 49.7434C56.4594 51.9715 55.2001 53.4246 54.4251 54.1027V56.234C54.4251 57.5902 56.8469 58.4621 59.075 59.334C61.6907 60.3027 64.4032 61.2715 65.2751 63.4996L62.8532 64.3715C62.4657 63.209 60.1407 62.434 58.2032 61.659C55.2 60.5934 51.8094 59.334 51.8094 56.234V52.7465L52.3907 52.359C52.4875 52.359 54.1344 51.1965 54.1344 48.9683V48.0965L54.9094 47.8059C55.0063 47.709 55.7813 47.3215 55.7813 46.159C55.7813 45.7715 55.4907 45.384 55.3938 45.2871L54.9094 44.7059L55.1032 44.0277C55.1032 44.0277 55.7813 41.8965 55.7813 38.9902C55.7813 36.5683 54.4251 34.3402 52.9719 34.3402H52.1969L51.8094 33.6621C51.5188 33.1777 50.3563 32.6934 48.8063 32.6934C44.4469 32.6934 41.8313 35.0183 41.8313 38.9902C41.8313 40.8308 42.5094 43.834 42.5094 43.834L42.7032 44.5121L42.2188 44.9965C42.2188 44.9965 41.8313 45.4808 41.8313 45.9652C41.8313 46.6433 42.7032 47.5152 43.0907 47.9027L43.575 48.2902V48.9683C43.575 51.0996 45.4157 52.2621 45.4157 52.2621L45.9969 52.6496V56.1371C45.9969 59.334 42.4125 60.9809 39.2157 62.3371C37.8594 63.1121 35.825 64.0808 35.4375 64.759Z" fill="white"/>
</svg>
