<svg width="98" height="98" viewBox="0 0 98 98" fill="none" xmlns="http://www.w3.org/2000/svg">
<circle cx="49" cy="49" r="47" fill="#FF9900" stroke="white" stroke-width="4"/>
<path fill-rule="evenodd" clip-rule="evenodd" d="M48.968 27.0322C44.306 27.0322 40.512 30.8562 40.512 35.5402C40.512 38.1762 41.74 40.5082 43.624 42.0702C41.4621 42.2359 39.3927 43.0166 37.66 44.3202C36.9868 44.1468 36.2952 44.0548 35.6 44.0462H35.42C36.4317 42.9411 36.995 41.4985 37 40.0002C37 36.6782 34.306 33.9582 31 33.9582C27.694 33.9582 25 36.6782 25 40.0002C25 41.6402 25.662 43.1222 26.722 44.2142C24.5494 44.6183 22.5872 45.771 21.1764 47.4719C19.7656 49.1728 18.9955 51.3144 19 53.5242V59.0042C19 59.2694 19.1054 59.5238 19.2929 59.7113C19.4804 59.8989 19.7348 60.0042 20 60.0042H33.024V60.9642C33.024 61.2294 33.1294 61.4838 33.3169 61.6713C33.5044 61.8589 33.7588 61.9642 34.024 61.9642H39.75C39.9228 62.0115 40.1052 62.0115 40.278 61.9642H57.718C57.8908 62.0115 58.0732 62.0115 58.246 61.9642H63.976C64.2412 61.9642 64.4956 61.8589 64.6831 61.6713C64.8707 61.4838 64.976 61.2294 64.976 60.9642V60.0042H78C78.2652 60.0042 78.5196 59.8989 78.7071 59.7113C78.8947 59.5238 79 59.2694 79 59.0042V53.5242C79.0045 51.3144 78.2345 49.1728 76.8237 47.4719C75.4129 45.771 73.4506 44.6183 71.278 44.2142C72.1039 43.3663 72.6624 42.2944 72.8841 41.1317C73.1059 39.969 72.9812 38.7668 72.5254 37.6744C72.0697 36.582 71.303 35.6476 70.3207 34.9873C69.3383 34.327 68.1836 33.9698 67 33.9602C63.694 33.9602 61 36.6802 61 40.0022C61 41.5622 61.61 42.9722 62.582 44.0482H62.398C61.678 44.0482 60.998 44.1642 60.338 44.3222C58.5903 43.0089 56.5007 42.2276 54.32 42.0722C56.204 40.5122 57.43 38.1762 57.43 35.5422C57.43 30.8582 53.63 27.0342 48.97 27.0342L48.968 27.0322ZM48.968 29.0322C52.544 29.0322 55.428 31.9322 55.428 35.5402C55.4358 37.232 54.7797 38.8594 53.6005 40.0725C52.4214 41.2857 50.8133 41.9879 49.122 42.0282H48.816C47.1247 41.9884 45.5166 41.2863 44.3377 40.073C43.1587 38.8596 42.5032 37.232 42.512 35.5402C42.5067 34.6885 42.6698 33.8441 42.9917 33.0555C43.3136 32.2669 43.7882 31.5497 44.388 30.945C44.9879 30.3403 45.7013 29.8601 46.4872 29.5318C47.2732 29.2036 48.1163 29.0338 48.968 29.0322ZM31 35.9582C33.216 35.9582 35 37.7502 35 40.0002C35.0048 40.529 34.9049 41.0535 34.7061 41.5435C34.5073 42.0336 34.2136 42.4794 33.8418 42.8555C33.4701 43.2315 33.0276 43.5303 32.5399 43.7347C32.0521 43.9391 31.5288 44.0449 31 44.0462C28.784 44.0462 27 42.2522 27 40.0002C27 37.7502 28.784 35.9582 31 35.9582ZM67 35.9582C69.216 35.9582 71 37.7502 71 40.0002C71.0048 40.529 70.9049 41.0535 70.7061 41.5435C70.5073 42.0336 70.2136 42.4794 69.8418 42.8555C69.4701 43.2315 69.0276 43.5303 68.5399 43.7347C68.0521 43.9391 67.5288 44.0449 67 44.0462C64.784 44.0462 63 42.2522 63 40.0002C63 37.7502 64.784 35.9582 67 35.9582ZM44.508 44.0282H46.996L46.004 55.9182C45.9918 56.0629 46.0112 56.2085 46.0609 56.345C46.1107 56.4814 46.1895 56.6054 46.292 56.7082L48.292 58.7082C48.3849 58.8014 48.4953 58.8752 48.6168 58.9257C48.7382 58.9761 48.8685 59.002 49 59.002C49.1316 59.002 49.2618 58.9761 49.3833 58.9257C49.5048 58.8752 49.6151 58.8014 49.708 58.7082L51.708 56.7082C51.8105 56.6054 51.8894 56.4814 51.9391 56.345C51.9888 56.2085 52.0082 56.0629 51.996 55.9182L51.004 44.0282H53.492C55.6065 44.0328 57.6574 44.7517 59.312 46.0682C59.3134 46.0689 59.3147 46.0696 59.316 46.0702C59.3509 46.1112 59.389 46.1494 59.43 46.1842C60.3982 46.9766 61.2042 47.9483 61.804 49.0462C61.888 49.2022 61.98 49.3522 62.054 49.5122C62.3589 50.1536 62.591 50.8272 62.746 51.5202C62.77 51.6282 62.786 51.7402 62.806 51.8482C62.906 52.4082 62.976 52.9862 62.976 53.5782V59.9642H58.984V54.1762C58.9862 54.0422 58.9614 53.9091 58.9111 53.7849C58.8608 53.6606 58.786 53.5478 58.6913 53.453C58.5965 53.3582 58.4836 53.2835 58.3594 53.2332C58.2351 53.1829 58.102 53.1581 57.968 53.1602C57.8367 53.1623 57.7071 53.1902 57.5865 53.2424C57.466 53.2946 57.3569 53.37 57.2656 53.4644C57.1742 53.5587 57.1023 53.6702 57.054 53.7923C57.0057 53.9144 56.9819 54.0449 56.984 54.1762V59.9642H41.016V54.1762C41.0182 54.0422 40.9934 53.9091 40.9431 53.7849C40.8928 53.6606 40.818 53.5478 40.7233 53.453C40.6285 53.3582 40.5156 53.2835 40.3914 53.2332C40.2671 53.1829 40.134 53.1581 40 53.1602C39.8687 53.1623 39.7391 53.1902 39.6185 53.2424C39.498 53.2946 39.3889 53.37 39.2976 53.4644C39.2062 53.5587 39.1343 53.6702 39.086 53.7923C39.0377 53.9144 39.0139 54.0449 39.016 54.1762V59.9642H35.024V53.5802C35.024 52.9882 35.094 52.4122 35.196 51.8502C35.216 51.7402 35.23 51.6302 35.254 51.5222C35.409 50.8292 35.6411 50.1556 35.946 49.5142C36.02 49.3542 36.112 49.2042 36.196 49.0482C36.7958 47.9503 37.6019 46.9786 38.57 46.1862C38.6126 46.1503 38.652 46.1108 38.688 46.0682C40.3426 44.7517 42.3935 44.0328 44.508 44.0282ZM49 44.0402C49.0011 44.0543 49.0024 44.0683 49.004 44.0822L49.964 55.6182L49 56.5822L48.036 55.6182L48.996 44.0822C48.9976 44.0683 48.999 44.0543 49 44.0402ZM28.402 46.0462H35.602C35.664 46.0462 35.724 46.0622 35.786 46.0742C34.0005 48.1665 33.021 50.8277 33.024 53.5782V58.0042H27V53.0162C27.0016 52.8825 26.9764 52.7499 26.9259 52.6261C26.8754 52.5023 26.8005 52.3899 26.7058 52.2956C26.6111 52.2012 26.4984 52.1269 26.3744 52.0768C26.2504 52.0268 26.1177 52.0021 25.984 52.0042C25.7195 52.0084 25.4674 52.1173 25.283 52.307C25.0986 52.4967 24.9968 52.7517 25 53.0162V58.0042H21V53.5242C21 49.3602 24.29 46.0462 28.402 46.0462ZM62.398 46.0462H69.598C73.71 46.0462 77 49.3602 77 53.5242V58.0042H73V53.5162C73.0022 53.3822 72.9774 53.2491 72.9271 53.1249C72.8768 53.0006 72.802 52.8878 72.7073 52.793C72.6125 52.6982 72.4996 52.6235 72.3754 52.5732C72.2511 52.5229 72.118 52.4981 71.984 52.5002C71.8527 52.5023 71.7231 52.5302 71.6025 52.5824C71.482 52.6346 71.3729 52.71 71.2816 52.8044C71.1902 52.8987 71.1183 53.0102 71.07 53.1323C71.0217 53.2544 70.9979 53.3849 71 53.5162V58.0042H64.976V53.5782C64.9796 50.8279 64.0008 48.1667 62.216 46.0742C62.276 46.0642 62.336 46.0462 62.398 46.0462Z" fill="white"/>
</svg>
