<svg width="98" height="98" viewBox="0 0 98 98" fill="none" xmlns="http://www.w3.org/2000/svg">
<circle cx="49" cy="49" r="47" fill="#FF9900" stroke="white" stroke-width="4"/>
<path d="M64.7013 56.1264C64.5465 56.1264 64.3951 56.1401 64.2428 56.1501L59.9946 51.2738C62.616 47.6587 57.8953 43.2924 54.4898 46.1932C51.1508 49.164 54.8296 54.4492 58.7671 52.3388L62.4127 56.5237C61.321 56.9152 60.3408 57.5661 59.5564 58.4204C58.772 59.2747 58.2068 60.3068 57.9096 61.4278L39.1176 52.833C39.6768 51.9929 40.056 51.0461 40.2313 50.0523C40.4066 49.0584 40.3741 48.039 40.136 47.0584L57.9518 37.8211C58.4239 39.4608 59.4757 40.8732 60.9114 41.7953C62.3471 42.7174 64.069 43.0864 65.7565 42.8336C67.444 42.5809 68.9822 41.7235 70.0847 40.4212C71.1873 39.119 71.7791 37.4604 71.75 35.7543C71.6775 28.1071 61.6016 25.8088 58.3482 32.6558L52.0976 30.194C52.2466 29.2778 52.0521 28.3387 51.5513 27.5571C51.0505 26.7754 50.2787 26.2062 49.384 25.9587C48.4894 25.7111 47.5348 25.8026 46.7034 26.2157C45.872 26.6287 45.2225 27.3342 44.8793 28.1967C44.5361 29.0593 44.5236 30.0182 44.844 30.8894C45.1644 31.7607 45.7952 32.483 46.6154 32.9177C47.4356 33.3524 48.3875 33.469 49.2884 33.245C50.1893 33.021 50.9757 32.4723 51.4969 31.704L57.8236 34.1957C57.7111 34.7077 57.6537 35.2302 57.6526 35.7544C57.6526 35.8832 57.6649 36.0089 57.6715 36.136L39.5761 45.5183C39.1211 44.5984 38.472 43.7882 37.6736 43.1436C36.8752 42.4989 35.9464 42.0351 34.9514 41.7841L34.9478 35.5417C39.3024 34.539 38.5981 28.147 34.1308 28.0952C33.2075 28.1046 32.3196 28.4524 31.6355 29.0726C30.9514 29.6929 30.5186 30.5425 30.419 31.4605C30.3194 32.3785 30.56 33.3012 31.0952 34.0537C31.6304 34.8062 32.423 35.3362 33.3229 35.5434L33.3263 41.5775C31.6287 41.6111 29.9972 42.2421 28.7187 43.3594C27.4401 44.4767 26.5963 46.0089 26.3356 47.6867C26.0748 49.3645 26.4137 51.0806 27.2928 52.5332C28.1719 53.9859 29.5348 55.0823 31.1421 55.6296L32.0678 62.4625C31.1961 62.7828 30.4733 63.4138 30.0382 64.2343C29.6031 65.0548 29.4863 66.007 29.7102 66.9084C29.9341 67.8097 30.483 68.5966 31.2515 69.1181C32.02 69.6396 32.954 69.8589 33.8743 69.734C34.7946 69.6092 35.6363 69.1488 36.2381 68.4414C36.8398 67.734 37.1591 66.8292 37.1347 65.9008C37.1103 64.9724 36.744 64.0857 36.1059 63.4109C35.4679 62.736 34.6031 62.3205 33.6775 62.2441L32.8253 55.9528C33.77 56.0201 34.7184 55.8916 35.611 55.5752C36.5037 55.2589 37.3214 54.7616 38.0129 54.1144L57.382 62.9732C57.4724 63.0112 57.5691 63.0324 57.6671 63.0355C57.639 63.5232 57.668 64.0126 57.7537 64.4936L51.8352 66.4651C51.359 65.6676 50.6051 65.0742 49.7181 64.7986C48.8311 64.5231 47.8735 64.5849 47.0293 64.9722C46.1851 65.3596 45.5138 66.0451 45.1441 66.8972C44.7745 67.7493 44.7327 68.708 45.0267 69.589C46.4824 73.8076 52.7719 72.4625 52.3491 68.0073L58.1846 66.0635C58.702 67.3725 59.5989 68.497 60.7601 69.2924C61.9213 70.0879 63.2938 70.5181 64.7013 70.5277C74.0391 70.1534 74.0481 56.504 64.7013 56.1264ZM56.8195 51.176C56.2563 51.1312 55.7335 50.8659 55.3646 50.4379C54.9958 50.0099 54.8107 49.4537 54.8495 48.8901C54.8882 48.3264 55.1478 47.8008 55.5717 47.4273C55.9957 47.0539 56.5499 46.8627 57.1139 46.8954C57.6771 46.9402 58.1999 47.2055 58.5687 47.6335C58.9375 48.0615 59.1227 48.6177 59.0839 49.1813C59.0451 49.745 58.7856 50.2706 58.3616 50.6441C57.9377 51.0175 57.3835 51.2087 56.8195 51.176ZM47.5924 31.5991C47.0695 31.386 46.6518 30.9754 46.4297 30.4563C46.2076 29.9372 46.199 29.3515 46.4058 28.8262C46.6126 28.3008 47.0182 27.8782 47.5346 27.6499C48.0509 27.4215 48.6365 27.4059 49.1643 27.6065C49.6871 27.8196 50.1048 28.2302 50.327 28.7492C50.5491 29.2683 50.5576 29.854 50.3508 30.3793C50.144 30.9047 49.7384 31.3273 49.2221 31.5557C48.7057 31.784 48.1202 31.7996 47.5924 31.5991ZM64.7013 30.178C66.1594 30.2002 67.5491 30.7998 68.5658 31.8451C69.5825 32.8904 70.1432 34.2963 70.125 35.7544C70.1395 36.4759 70.01 37.193 69.744 37.8638C69.478 38.5346 69.0808 39.1456 68.5757 39.661C68.0707 40.1764 67.4678 40.5859 66.8025 40.8654C66.1372 41.1449 65.4229 41.2889 64.7012 41.2889C63.9796 41.2888 63.2652 41.1449 62.6 40.8653C61.9347 40.5858 61.3318 40.1764 60.8268 39.661C60.3217 39.1456 59.9245 38.5346 59.6585 37.8638C59.3925 37.1929 59.263 36.4758 59.2776 35.7543C59.2594 34.2962 59.8201 32.8904 60.8368 31.8451C61.8535 30.7997 63.2432 30.2002 64.7013 30.178ZM31.9874 31.8673C31.9926 31.3019 32.2208 30.7614 32.6223 30.3632C33.0238 29.9651 33.5662 29.7416 34.1316 29.7411C34.697 29.7407 35.2398 29.9635 35.6419 30.3611C36.0439 30.7586 36.2729 31.2988 36.2789 31.8642C36.2737 32.4296 36.0455 32.9701 35.644 33.3682C35.2425 33.7663 34.7001 33.9899 34.1347 33.9903C33.5693 33.9907 33.0265 33.7679 32.6244 33.3704C32.2224 32.9728 31.9934 32.4327 31.9874 31.8673ZM35.493 65.7098C35.5624 66.2705 35.4079 66.8359 35.063 67.2834C34.7181 67.7309 34.2107 68.0244 33.6509 68.1001C33.091 68.1758 32.5239 68.0277 32.0725 67.6879C31.6212 67.3481 31.322 66.844 31.24 66.285C31.1706 65.7243 31.3251 65.1589 31.67 64.7114C32.0148 64.2639 32.5222 63.9704 33.0821 63.8947C33.642 63.819 34.2091 63.9671 34.6605 64.3069C35.1118 64.6467 35.4109 65.1508 35.493 65.7098ZM33.2986 54.3523C31.8406 54.3302 30.4509 53.7309 29.4342 52.6857C28.4174 51.6404 27.8567 50.2347 27.875 48.7766C27.8607 48.0554 27.9905 47.3385 28.2567 46.668C28.5229 45.9975 28.9201 45.3869 29.4251 44.8718C29.9302 44.3567 30.5329 43.9475 31.198 43.6681C31.8631 43.3888 32.5773 43.2449 33.2987 43.2449C34.0201 43.2449 34.7342 43.3888 35.3993 43.6682C36.0644 43.9475 36.6672 44.3567 37.1722 44.8718C37.6772 45.3869 38.0745 45.9976 38.3406 46.6681C38.6068 47.3386 38.7366 48.0555 38.7223 48.7767C38.7405 50.2348 38.1798 51.6405 37.1631 52.6857C36.1463 53.7309 34.7566 54.3302 33.2986 54.3523ZM50.523 69.3581C50.3651 69.6736 50.1318 69.9453 49.8438 70.1492C49.5558 70.353 49.2219 70.4827 48.8718 70.5267C48.5218 70.5707 48.1662 70.5277 47.8367 70.4015C47.5072 70.2752 47.214 70.0697 46.9829 69.8031C46.7518 69.5365 46.59 69.217 46.5118 68.8729C46.4337 68.5288 46.4416 68.1708 46.5349 67.8305C46.6281 67.4902 46.8039 67.1782 47.0465 66.9221C47.2892 66.6659 47.5913 66.4735 47.926 66.362C48.328 66.2348 48.7583 66.2281 49.1641 66.3426C49.5698 66.4571 49.9332 66.6879 50.2093 67.0064C50.4854 67.325 50.6623 67.7175 50.718 68.1353C50.7738 68.5532 50.706 68.9783 50.523 69.3581ZM64.7013 68.9027C63.2433 68.8806 61.8536 68.2813 60.8368 67.2361C59.8201 66.1909 59.2594 64.7851 59.2776 63.327C59.2636 62.6059 59.3935 61.8892 59.6598 61.2189C59.926 60.5486 60.3233 59.9381 60.8283 59.4231C61.3333 58.9082 61.936 58.4991 62.601 58.2199C63.266 57.9406 63.9801 57.7968 64.7013 57.7968C65.4226 57.7968 66.1366 57.9406 66.8016 58.2199C67.4666 58.4992 68.0693 58.9082 68.5743 59.4232C69.0793 59.9382 69.4766 60.5487 69.7428 61.219C70.0091 61.8893 70.139 62.606 70.125 63.3271C70.1432 64.7852 69.5824 66.1909 68.5657 67.2361C67.549 68.2813 66.1593 68.8806 64.7013 68.9027Z" fill="white"/>
</svg>
