<svg width="98" height="98" viewBox="0 0 98 98" fill="none" xmlns="http://www.w3.org/2000/svg">
<circle cx="49" cy="49" r="47" fill="#FF9900" stroke="white" stroke-width="4"/>
<path d="M39.8524 33.4111C40.3303 32.723 41.2203 32.3391 42.0578 32.5358L52.595 35.0107C53.2529 35.1653 53.8013 35.5579 54.1293 36.1095L68.4205 60.1398C69.1357 61.3424 68.6322 62.9615 67.2961 63.7562L54.9506 71.0983C53.6144 71.893 51.9513 71.5622 51.2361 70.3596L36.9449 46.3295C36.6169 45.778 36.5336 45.1086 36.712 44.4567L38.8691 36.5895" stroke="white" stroke-width="2" stroke-miterlimit="10" stroke-linecap="round" stroke-linejoin="round"/>
<path d="M42.1692 36.4744C41.3549 35.7393 40.439 34.5923 39.6176 33.211C37.9851 30.4662 37.3434 27.8356 38.1842 27.3356C38.8982 26.911 40.4518 28.1593 41.9038 30.2264M36.6974 36.6452L33.8579 42.7679C33.5705 43.3875 33.531 44.0937 33.7473 44.7416L42.3196 70.4134C42.6098 71.2824 43.562 71.7381 44.4207 71.4191L47.7552 70.1804M66.1067 31.5383V32.112M66.1067 35.4723V36.046M63.8528 33.7921H64.4266M67.7869 33.7921H68.3606M30.3273 65.226V65.7997M30.3273 69.16V69.7337M28.0734 67.4799H28.6471M32.0075 67.4799H32.5812" stroke="white" stroke-width="2" stroke-miterlimit="10" stroke-linecap="round" stroke-linejoin="round"/>
<path d="M70.18 41.0283C70.6339 41.0283 71.0018 40.6604 71.0018 40.2065C71.0018 39.7527 70.6339 39.3848 70.18 39.3848C69.7262 39.3848 69.3583 39.7527 69.3583 40.2065C69.3583 40.6604 69.7262 41.0283 70.18 41.0283Z" fill="white"/>
<path d="M66.9878 46.0342C67.4416 46.0342 67.8095 45.6662 67.8095 45.2124C67.8095 44.7585 67.4416 44.3906 66.9878 44.3906C66.5339 44.3906 66.166 44.7585 66.166 45.2124C66.166 45.6662 66.5339 46.0342 66.9878 46.0342Z" fill="white"/>
<path d="M31.3179 60.624C31.7717 60.624 32.1396 60.2561 32.1396 59.8022C32.1396 59.3484 31.7717 58.9805 31.3179 58.9805C30.864 58.9805 30.4961 59.3484 30.4961 59.8022C30.4961 60.2561 30.864 60.624 31.3179 60.624Z" fill="white"/>
<path d="M58.892 30.79C59.3458 30.79 59.7137 30.4221 59.7137 29.9682C59.7137 29.5144 59.3458 29.1465 58.892 29.1465C58.4381 29.1465 58.0702 29.5144 58.0702 29.9682C58.0702 30.4221 58.4381 30.79 58.892 30.79Z" fill="white"/>
<path d="M48.3961 45.5312L52.574 48.2033L57.1436 46.2764L55.8935 51.0755L59.1381 54.8261L54.1876 55.1201L51.6233 59.3649L49.8138 54.7475L44.9844 53.6204L48.8166 50.4727L48.3961 45.5312Z" stroke="white" stroke-width="2" stroke-miterlimit="10" stroke-linecap="round" stroke-linejoin="round"/>
</svg>
